G04 ================== begin FILE IDENTIFICATION RECORD ==================*
G04 Layout Name:  C:/tmp/20_043758d/worklib/02_043758d_top/physical/08_043758d.brd*
G04 Film Name:    l5_sig*
G04 File Format:  Gerber RS274X*
G04 File Origin:  Cadence Allegro 17.2-060*
G04 Origin Date:  Fri Apr 03 00:38:29 2020*
G04 *
G04 Layer:  BOARD GEOMETRY/LYR_5*
G04 Layer:  VIA CLASS/L5_SIG*
G04 Layer:  PIN/L5_SIG*
G04 Layer:  ETCH/L5_SIG*
G04 Layer:  BOARD GEOMETRY/TOOLING_CORNERS*
G04 Layer:  BOARD GEOMETRY/ROOT_NUMBER*
G04 *
G04 Offset:    (0.00 0.00)*
G04 Mirror:    No*
G04 Mode:      Positive*
G04 Rotation:  0*
G04 FullContactRelief:  No*
G04 UndefLineWidth:     8.00*
G04 ================== end FILE IDENTIFICATION RECORD ====================*
%FSLAX25Y25*MOIN*%
%IR0*IPPOS*OFA0.00000B0.00000*MIA0B0*SFA1.00000B1.00000*%
%ADD10C,.02*%
%ADD13C,.04*%
%ADD14C,.042*%
%ADD11C,.016*%
%ADD12C,.065*%
%ADD15C,.075*%
%ADD16C,.012*%
%ADD17C,.05*%
%ADD18C,.004*%
%ADD19C,.008*%
%ADD20C,.005*%
%ADD21C,.0045*%
%ADD22C,.0055*%
%ADD23C,.0065*%
%ADD29C,.06004*%
%ADD32C,.08104*%
%ADD27C,.03604*%
%ADD25C,.09104*%
%ADD24C,.06404*%
%ADD28C,.05604*%
%ADD30C,.05904*%
%ADD31C,.08904*%
%ADD26C,.19904*%
G75*
%LPD*%
G75*
G36*
G01X113378Y246173D02*
X113579D01*
G02X302380Y231786I-8482J-1357327D01*
G01X305806Y231231D01*
G02X319783Y214811I-2657J-16420D01*
G01X319782Y202502D01*
X307999D01*
X306998Y201501D01*
Y196001D01*
X305999Y195002D01*
X279002D01*
Y201001D01*
X278501Y201502D01*
X271498D01*
Y193501D01*
X270055Y192058D01*
X265557Y196557D01*
G03X264000Y197202I-1557J-1557D01*
G01X230798D01*
X230765Y197361D01*
G03X229000Y198802I-1765J-360D01*
G03X228195Y198612I0J-1802D01*
G01X228066Y198548D01*
X213557Y213057D01*
G03X212000Y213702I-1557J-1557D01*
G01X187912D01*
X183702Y217912D01*
Y218488D01*
X184120Y218906D01*
G03X184764Y220461I-1557J1556D01*
G01Y220463D01*
G03X182563Y222664I-2201J0D01*
G03X181107Y222114I0J-2202D01*
G02X180843I-132J150D01*
G03X179387Y222664I-1456J-1652D01*
G03X177186Y220463I0J-2201D01*
G01Y220461D01*
G03X177830Y218906I2201J1D01*
G01X178248Y218488D01*
Y216565D01*
G03X178893Y215008I2202J0D01*
G01X185008Y208893D01*
G03X186565Y208248I1557J1557D01*
G01X210653D01*
X226508Y192393D01*
G03X228065Y191748I1557J1557D01*
G01X262653D01*
X269998Y184404D01*
Y171998D01*
X278998D01*
Y161498D01*
X295999D01*
X296498Y160999D01*
Y156498D01*
X314998D01*
Y140502D01*
X308498D01*
Y122678D01*
G02X307752Y122477I-400J1D01*
G03X305163Y123960I-2589J-1518D01*
G01X304363D01*
G03Y117958I0J-3001D01*
G01X305163D01*
G03X308044Y120116I0J3002D01*
G02X308710Y120286I384J-113D01*
G01X309498Y119499D01*
Y105501D01*
X308548Y104551D01*
G02X307900Y104670I-283J283D01*
G03X305163Y106440I-2737J-1231D01*
G01X304363D01*
G03Y100438I0J-3001D01*
G01X305165D01*
G03X306870Y100970I-1J3001D01*
G02X307498Y100641I228J-329D01*
G01Y98002D01*
X305999D01*
X304998Y97001D01*
Y88999D01*
X305499Y88498D01*
X311501D01*
X312002Y88999D01*
Y90998D01*
X319782D01*
Y53462D01*
X319779Y53460D01*
Y53458D01*
G03X317281Y49128I2504J-4330D01*
G03X318071Y46431I5002J1D01*
G03X317281Y44128I2962J-2303D01*
G03X318235Y41628I3753J0D01*
G03X317281Y39128I2799J-2500D01*
G03X318236Y36628I3752J1D01*
G03X317278Y34124I2793J-2504D01*
G03X318068Y31821I3752J0D01*
G03X317281Y29128I4214J-2693D01*
G03X319684Y24855I5001J0D01*
G01X319780Y24796D01*
X319783Y24794D01*
Y9586D01*
G02X305807Y-6833I-16634J1D01*
G01X302381Y-7387D01*
G02X217669Y-17125I-197292J1342939D01*
G03X213555Y-14968I-4114J-2845D01*
G03X210514Y-15999I1J-5002D01*
G03X208393Y-15342I-2121J-3095D01*
G03X205616Y-16571I0J-3752D01*
G03X203231Y-15715I-2385J-2896D01*
G03X200454Y-16944I0J-3752D01*
G03X198070Y-16089I-2384J-2897D01*
G01X198069D01*
G03X195448Y-17156I0J-3753D01*
G03X192907Y-16462I-2542J-4308D01*
G03X188428Y-19238I0J-5001D01*
G01X188427D01*
X188426Y-19241D01*
G02X113579Y-21775I-83334J1354793D01*
G01X113378D01*
Y422D01*
G03X83472I-14953J-1D01*
G01Y-21626D01*
X83269D01*
G02X20500Y-19163I21822J1357179D01*
G02X8540Y-18363I84610J1354715D01*
G03X4038Y-15541I-4502J-2180D01*
G03X1648Y-16149I0J-5001D01*
G03X-917Y-15135I-2565J-2738D01*
G01X-918D01*
G03X-3167Y-15884I0J-3751D01*
G03X-5875Y-14729I-2708J-2597D01*
G01X-5877D01*
G03X-8124Y-15477I1J-3752D01*
G03X-10831Y-14323I-2707J-2598D01*
G03X-12819Y-14893I0J-3752D01*
G03X-15787Y-13917I-2968J-4026D01*
G01X-15788D01*
G03X-19876Y-16037I0J-5001D01*
G02X-104892Y-5461I124972J1351589D01*
G01Y11161D01*
X-104889Y11163D01*
G03X-102391Y15493I-2504J4330D01*
G03X-103181Y18190I-5002J-1D01*
G03X-102391Y20493I-2962J2303D01*
G03X-103345Y22993I-3753J0D01*
G03Y27993I-2799J2500D01*
G03X-102391Y30493I-2799J2500D01*
G03X-103181Y32796I-3752J0D01*
G03X-102391Y35493I-4212J2698D01*
G03X-104889Y39823I-5002J0D01*
G01X-104892Y39825D01*
Y184244D01*
X-104889Y184246D01*
G03X-102391Y188576I-2504J4330D01*
G03X-103181Y191273I-5002J-1D01*
G03X-102391Y193576I-2962J2303D01*
G03X-103345Y196076I-3753J0D01*
G03Y201076I-2799J2500D01*
G03X-102391Y203576I-2799J2500D01*
G03X-103181Y205879I-3752J0D01*
G03X-102391Y208576I-4212J2698D01*
G03X-104889Y212906I-5002J0D01*
G01X-104892Y212908D01*
Y229858D01*
G02X83269Y246024I209989J-1341012D01*
G01X83472D01*
Y223977D01*
G03X113378I14953J0D01*
G01Y246173D01*
G37*
%LPC*%
G75*
G36*
G01X-38840Y3295D02*
G02X-39302Y4500I1340J1205D01*
G02X-35698I1802J0D01*
G02X-36041Y3442I-1803J0D01*
G02X-35579Y2237I-1340J-1205D01*
G02X-39183I-1802J0D01*
G02X-38840Y3295I1803J0D01*
G37*
G36*
G01X51000Y10302D02*
G02X52250Y9798I0J-1802D01*
G02X53500Y10302I1250J-1298D01*
G02X55302Y8500I0J-1802D01*
G02X55283Y8237I-1802J-2D01*
G03X55737Y7783I395J-59D01*
G02X56000Y7802I261J-1783D01*
G02X57802Y6000I0J-1802D01*
G02X57298Y4750I-1802J0D01*
G02X57802Y3500I-1298J-1250D01*
G02X56000Y1698I-1802J0D01*
G02X54750Y2202I0J1802D01*
G02X52250I-1250J1298D01*
G02X51000Y1698I-1250J1298D01*
G02X49198Y3500I0J1802D01*
G02X49702Y4750I1802J0D01*
G02Y7250I1298J1250D01*
G02X49198Y8500I1298J1250D01*
G02X51000Y10302I1802J0D01*
G37*
G36*
G01X24500Y20802D02*
G02X25750Y20298I0J-1802D01*
G02X27000Y20802I1250J-1298D01*
G02X28802Y19000I0J-1802D01*
G02X28298Y17750I-1802J0D01*
G02Y15250I-1298J-1250D01*
G02X28802Y14000I-1298J-1250D01*
G02X27000Y12198I-1802J0D01*
G02X25750Y12702I0J1802D01*
G02X24500Y12198I-1250J1298D01*
G02X22698Y14000I0J1802D01*
G02X23202Y15250I1802J0D01*
G02Y17750I1298J1250D01*
G02X22698Y19000I1298J1250D01*
G02X24500Y20802I1802J0D01*
G37*
G36*
G01X98932Y26094D02*
G03X99568I318J242D01*
G02X101000Y26802I1432J-1094D01*
G02X102802Y25000I0J-1802D01*
G02X102319Y23772I-1803J0D01*
G03Y23228I293J-272D01*
G02X102802Y22000I-1320J-1228D01*
G02X101000Y20198I-1802J0D01*
G02X99568Y20906I0J1802D01*
G03X98932I-318J-242D01*
G02X97500Y20198I-1432J1094D01*
G02X95698Y22000I0J1802D01*
G02X96181Y23228I1803J0D01*
G03Y23772I-293J272D01*
G02X95698Y25000I1320J1228D01*
G02X97500Y26802I1802J0D01*
G02X98932Y26094I0J-1802D01*
G37*
G36*
G01X215728Y41819D02*
G03X216272I272J293D01*
G02X217500Y42302I1228J-1320D01*
G02X219302Y40500I0J-1802D01*
G02X218819Y39272I-1803J0D01*
G03Y38728I293J-272D01*
G02X219302Y37500I-1320J-1228D01*
G02X217500Y35698I-1802J0D01*
G02X216272Y36181I0J1803D01*
G03X215728I-272J-293D01*
G02X213272I-1228J1320D01*
G03X212728I-272J-293D01*
G02X210272I-1228J1320D01*
G03X209728I-272J-293D01*
G02X207272I-1228J1320D01*
G03X206728I-272J-293D01*
G02X204272I-1228J1320D01*
G03X203728I-272J-293D01*
G02X202598Y35701I-1227J1319D01*
G03X202273Y35101I21J-400D01*
G02X202702Y33500I-2773J-1601D01*
G02X196298I-3202J0D01*
G02X197749Y36181I3202J0D01*
G03X197888Y36694I-219J335D01*
G02X197698Y37499I1612J805D01*
G01Y37500D01*
G02X198181Y38728I1803J0D01*
G03Y39272I-293J272D01*
G02X197698Y40500I1320J1228D01*
G02X199500Y42302I1802J0D01*
G02X200728Y41819I0J-1803D01*
G03X201272I272J293D01*
G02X203728I1228J-1320D01*
G03X204272I272J293D01*
G02X206728I1228J-1320D01*
G03X207272I272J293D01*
G02X209728I1228J-1320D01*
G03X210272I272J293D01*
G02X212728I1228J-1320D01*
G03X213272I272J293D01*
G02X215728I1228J-1320D01*
G37*
G36*
G01X-60602Y40500D02*
G02X-58000Y43102I2602J0D01*
G01X-57014D01*
G02X-55174Y42340I0J-2603D01*
G01X-48657Y35822D01*
G03X-48052Y35868I283J283D01*
G02X-47178Y36507I1452J-1068D01*
G02X-47202Y36800I1778J293D01*
G02X-43598I1802J0D01*
G02X-43636Y36432I-1801J0D01*
G02X-42598Y34800I-764J-1632D01*
G02X-43736Y33125I-1802J0D01*
G02X-43633Y32525I-1699J-601D01*
G01Y32524D01*
G02X-44609Y30922I-1803J0D01*
G02X-44598Y30686I-2591J-239D01*
G01Y15600D01*
G02X-49802I-2602J0D01*
G01Y29608D01*
X-58092Y37899D01*
X-58167Y37904D01*
G02X-60602Y40500I166J2596D01*
G37*
G36*
G01X262250Y48298D02*
G02X264750I1250J-1298D01*
G02X266000Y48802I1250J-1298D01*
G02Y45198I0J-1802D01*
G02X264750Y45702I0J1802D01*
G02X263500Y45198I-1250J1298D01*
G02X263237Y45217I-2J1802D01*
G03X262783Y44763I-59J-395D01*
G02X262802Y44500I-1783J-261D01*
G02X261000Y42698I-1802J0D01*
G02X259750Y43202I0J1802D01*
G02X257250I-1250J1298D01*
G02X256000Y42698I-1250J1298D01*
G02X255737Y42717I-2J1802D01*
G03X255283Y42263I-59J-395D01*
G02X255302Y42000I-1783J-261D01*
G02X253500Y40198I-1802J0D01*
G02X252250Y40702I0J1802D01*
G02X251000Y40198I-1250J1298D01*
G02X249198Y42000I0J1802D01*
G02X249702Y43250I1802J0D01*
G02X249198Y44500I1298J1250D01*
G02X251000Y46302I1802J0D01*
G02X252250Y45798I0J-1802D01*
G02X253500Y46302I1250J-1298D01*
G02X253763Y46283I2J-1802D01*
G03X254217Y46737I59J395D01*
G02X254198Y47000I1783J261D01*
G02X256000Y48802I1802J0D01*
G02X257250Y48298I0J-1802D01*
G02X259750I1250J-1298D01*
G02X262250I1250J-1298D01*
G37*
G36*
G01X-23272Y58319D02*
G03X-22728I272J293D01*
G02X-21500Y58802I1228J-1320D01*
G02Y55198I0J-1802D01*
G02X-22728Y55681I0J1803D01*
G03X-23272I-272J-293D01*
G02X-24500Y55198I-1228J1320D01*
G02Y58802I0J1802D01*
G02X-23272Y58319I0J-1803D01*
G37*
G36*
G01X191047Y61745D02*
G02Y65349I0J1802D01*
G02X192313Y64829I0J-1801D01*
G03X192866Y64821I281J285D01*
G02X194092Y65302I1226J-1322D01*
G02X195486Y64641I-1J-1802D01*
G03X196106I310J254D01*
G02X197500Y65302I1395J-1141D01*
G02Y61698I0J-1802D01*
G02X196106Y62359I1J1802D01*
G03X195486I-310J-254D01*
G02X194092Y61698I-1395J1141D01*
G02X192826Y62218I0J1801D01*
G03X192273Y62226I-281J-285D01*
G02X191047Y61745I-1226J1322D01*
G37*
G36*
G01X221326Y65489D02*
G02X221321Y65622I1797J134D01*
G02X223123Y63820I1802J0D01*
G02X222981Y63826I5J1802D01*
G03X222550Y63397I-32J-399D01*
G02X222555Y63264I-1797J-134D01*
G02X220753Y65066I-1802J0D01*
G02X220895Y65060I-5J-1802D01*
G03X221326Y65489I32J399D01*
G37*
G36*
G01X278000Y67802D02*
G02X279250Y67298I0J-1802D01*
G02X280500Y67802I1250J-1298D01*
G02Y64198I0J-1802D01*
G02X279250Y64702I0J1802D01*
G02X278000Y64198I-1250J1298D01*
G02Y67802I0J1802D01*
G37*
G36*
G01X183663Y66336D02*
G02X182552Y68000I691J1664D01*
G02X186156I1802J0D01*
G02X185165Y66391I-1802J0D01*
G03X185191Y65664I180J-358D01*
G02X186302Y64000I-691J-1664D01*
G02X185254Y62363I-1803J0D01*
G03Y61637I167J-363D01*
G02X186302Y60000I-755J-1637D01*
G02X182698I-1802J0D01*
G02X183746Y61637I1803J0D01*
G03Y62363I-167J363D01*
G02X182698Y64000I755J1637D01*
G02X183689Y65609I1802J0D01*
G03X183663Y66336I-180J358D01*
G37*
G36*
G01X-52021Y78484D02*
G02X-50771Y77980I0J-1802D01*
G02X-49521Y78484I1250J-1298D01*
G02Y74880I0J-1802D01*
G02X-50771Y75384I0J1802D01*
G02X-52021Y74880I-1250J1298D01*
G02Y78484I0J1802D01*
G37*
G36*
G01X192637Y91754D02*
G03X193363I363J167D01*
G02X195000Y92802I1637J-755D01*
G02Y89198I0J-1802D01*
G02X193363Y90246I0J1803D01*
G03X192637I-363J-167D01*
G02X191000Y89198I-1637J755D01*
G02Y92802I0J1802D01*
G02X192637Y91754I0J-1803D01*
G37*
G36*
G01X-50597Y119359D02*
G03X-50007I295J270D01*
G02X-48677Y119945I1330J-1216D01*
G02Y116341I0J-1802D01*
G02X-50007Y116927I0J1802D01*
G03X-50597I-295J-270D01*
G02X-51927Y116341I-1330J1216D01*
G02Y119945I0J1802D01*
G02X-50597Y119359I0J-1802D01*
G37*
G36*
G01X301087Y140345D02*
G02X302337Y139841I0J-1802D01*
G02X303587Y140345I1250J-1298D01*
G02X305389Y138543I0J-1802D01*
G02X304885Y137293I-1802J0D01*
G02Y134793I-1298J-1250D01*
G02Y132293I-1298J-1250D01*
G02X305389Y131043I-1298J-1250D01*
G02X304837Y129745I-1802J0D01*
G02X305259Y128587I-1380J-1159D01*
G02X303457Y126785I-1802J0D01*
G02X302207Y127289I0J1802D01*
G02X300957Y126785I-1250J1298D01*
G02X299155Y128587I0J1802D01*
G02X299707Y129885I1802J0D01*
G02X299285Y131043I1380J1159D01*
G02X299789Y132293I1802J0D01*
G02Y134793I1298J1250D01*
G02Y137293I1298J1250D01*
G02X299285Y138543I1298J1250D01*
G02X301087Y140345I1802J0D01*
G37*
G36*
G01X64550Y138424D02*
G02X63936Y139685I988J1261D01*
G02X67140I1602J0D01*
G02X66526Y138424I-1602J0D01*
G03Y137794I247J-315D01*
G02X67140Y136533I-988J-1261D01*
G02X66282Y135114I-1602J0D01*
G03Y134406I186J-354D01*
G02X67140Y132987I-744J-1419D01*
G02X63936I-1602J0D01*
G02X64794Y134406I1602J0D01*
G03Y135114I-186J354D01*
G02X63936Y136533I744J1419D01*
G02X64550Y137794I1602J0D01*
G03Y138424I-247J315D01*
G37*
G36*
G01X-6319Y143972D02*
G02X-6802Y145200I1320J1228D01*
G02X-3198I1802J0D01*
G02X-3681Y143972I-1803J0D01*
G03Y143428I293J-272D01*
G02X-3198Y142200I-1320J-1228D01*
G02X-6802I-1802J0D01*
G02X-6319Y143428I1803J0D01*
G03Y143972I-293J272D01*
G37*
G36*
G01X5906Y144068D02*
G02X5198Y145500I1094J1432D01*
G02X8802I1802J0D01*
G02X8094Y144068I-1802J0D01*
G03Y143432I242J-318D01*
G02X8802Y142000I-1094J-1432D01*
G02X5198I-1802J0D01*
G02X5906Y143432I1802J0D01*
G03Y144068I-242J318D01*
G37*
G36*
G01X10962Y144127D02*
G02X10198Y145600I1038J1473D01*
G02X13802I1802J0D01*
G02X13038Y144127I-1802J0D01*
G03Y143473I230J-327D01*
G02X13802Y142000I-1038J-1473D01*
G02X10198I-1802J0D01*
G02X10962Y143473I1802J0D01*
G03Y144127I-230J327D01*
G37*
G36*
G01X24694Y147078D02*
G03X25241Y147089I268J297D01*
G02X26500Y147602I1259J-1288D01*
G02X28302Y145800I0J-1802D01*
G02X27693Y144450I-1801J0D01*
G03Y143850I265J-300D01*
G02X28302Y142500I-1192J-1350D01*
G02X26500Y140698I-1802J0D01*
G01X26499D01*
G02X25230Y141221I0J1802D01*
G03X24684Y141237I-282J-284D01*
G02X23489Y140784I-1195J1350D01*
G02X21687Y142586I0J1802D01*
G02X22231Y143876I1802J0D01*
G03Y144448I-280J286D01*
G02X21687Y145738I1258J1290D01*
G02X23489Y147540I1802J0D01*
G02X24694Y147078I0J-1802D01*
G37*
G36*
G01X299250Y154798D02*
G02X301750I1250J-1298D01*
G02X303000Y155302I1250J-1298D01*
G02X304802Y153500I0J-1802D01*
G02X304094Y152068I-1802J0D01*
G03Y151432I242J-318D01*
G02X304802Y150000I-1094J-1432D01*
G02X303000Y148198I-1802J0D01*
G02X301750Y148702I0J1802D01*
G02X299250I-1250J1298D01*
G02X298000Y148198I-1250J1298D01*
G02X296198Y150000I0J1802D01*
G02X296906Y151432I1802J0D01*
G03Y152068I-242J318D01*
G02X296198Y153500I1094J1432D01*
G02X298000Y155302I1802J0D01*
G02X299250Y154798I0J-1802D01*
G37*
G36*
G01X267898Y162113D02*
Y166500D01*
G02X273102I2602J0D01*
G01Y150700D01*
G02X272340Y148860I-2603J0D01*
G01X271579Y148100D01*
X272777Y146903D01*
G02X273538Y145066I-1841J-1839D01*
G01Y142189D01*
G03X274221Y141906I400J0D01*
G01X285056Y152741D01*
G02X286647Y153400I1591J-1592D01*
G01X292852D01*
G02X294443Y152741I0J-2251D01*
G01X294592Y152592D01*
G02X295252Y151000I-1592J-1593D01*
G02X293000Y148748I-2252J0D01*
G02X292227Y148885I0J2252D01*
G01X292194Y148898D01*
X287581D01*
X274752Y136068D01*
Y121251D01*
G02X274092Y119659I-2252J1D01*
G01X270016Y115583D01*
G03X270299Y114900I283J-283D01*
G01X298544D01*
G02X300135Y114241I0J-2251D01*
G01X303144Y111232D01*
G02X303804Y109640I-1592J-1593D01*
G02X301552Y107388I-2252J0D01*
G02X299960Y108048I1J2252D01*
G01X297610Y110398D01*
X264855D01*
G03X264520Y109780I0J-400D01*
G02X265002Y108149I-2520J-1631D01*
G02X262658Y105220I-3002J0D01*
G01X262502Y105185D01*
Y103097D01*
G02X261622Y100975I-3001J1D01*
G01X248674Y88027D01*
G02X246552Y87148I-2122J2122D01*
G01X219051D01*
G02X216501Y88567I0J3001D01*
G01X216489Y88587D01*
X216331Y88744D01*
X216144Y88557D01*
G02X215077Y87959I-1593J1591D01*
G03X214775Y87507I93J-389D01*
G02X214804Y87149I-2223J-360D01*
G01Y73149D01*
G02X214144Y71557I-2252J1D01*
G01X212804Y70216D01*
Y66149D01*
G02X208300I-2252J0D01*
G01Y71149D01*
G02X208960Y72741I2252J-1D01*
G01X209235Y73016D01*
G03X208961Y73698I-283J282D01*
G02X207939Y74043I39J1802D01*
G03X207304Y73720I-235J-323D01*
G01Y59149D01*
G02X206644Y57557I-2252J1D01*
G01X200804Y51716D01*
Y47649D01*
G02X200144Y46057I-2252J1D01*
G01X194804Y40716D01*
Y23381D01*
X197092Y21092D01*
G02X197752Y19500I-1592J-1593D01*
G02X195500Y17248I-2252J0D01*
G02X193908Y17908I1J2252D01*
G01X190960Y20856D01*
G02X190300Y22448I1592J1593D01*
G01Y41649D01*
G02X190960Y43241I2252J-1D01*
G01X196300Y48582D01*
Y52649D01*
G02X196960Y54241I2252J-1D01*
G01X202800Y60082D01*
Y83149D01*
G02X203460Y84741I2252J-1D01*
G01X203480Y84761D01*
G03X203279Y85436I-282J283D01*
G02X201844Y87200I367J1764D01*
G02X203646Y89002I1802J0D01*
G02X204263Y88893I0J-1801D01*
G03X204800Y89268I137J376D01*
G01Y105149D01*
G02X205460Y106741I2252J-1D01*
G01X227300Y128582D01*
Y154149D01*
G02X227960Y155741I2252J-1D01*
G01X239311Y167092D01*
G02X240903Y167752I1593J-1592D01*
G01X255936D01*
X255964Y167760D01*
G02X256600Y167852I637J-2160D01*
G02X258844Y165785I0J-2252D01*
G03X259038Y165602I199J17D01*
G02X260602Y164000I-38J-1602D01*
G02X260552Y163601I-1602J-2D01*
G03X260939Y163102I387J-99D01*
G01X261000D01*
G02X262840Y162340I0J-2603D01*
G01X263829Y161350D01*
G03X264455Y161427I283J283D01*
G02X266000Y162302I1545J-927D01*
G02X267226Y161820I-1J-1802D01*
G03X267898Y162113I272J293D01*
G37*
G36*
G01X50810Y167647D02*
G02X50198Y169000I1190J1353D01*
G02X53802I1802J0D01*
G02X53390Y167853I-1803J0D01*
G02X54002Y166500I-1190J-1353D01*
G02X53498Y165250I-1802J0D01*
G02Y162750I-1298J-1250D01*
G02X54002Y161500I-1298J-1250D01*
G02X53769Y160614I-1801J0D01*
G02X54452Y159000I-1568J-1615D01*
G02X53683Y157306I-2252J1D01*
G02X53802Y156700I-1484J-606D01*
G02X52200Y155098I-1602J0D01*
G02X50604Y156565I0J1602D01*
G01X50588Y156748D01*
X-10067D01*
X-36748Y130067D01*
Y115500D01*
G02X-37408Y113908I-2252J1D01*
G01X-39248Y112067D01*
Y99000D01*
G02X-39908Y97408I-2252J1D01*
G01X-58618Y78698D01*
G02X-59392Y78192I-1593J1591D01*
G02X-59898Y77418I-2097J819D01*
G01X-67248Y70067D01*
Y46500D01*
G02X-67908Y44908I-2252J1D01*
G01X-74748Y38067D01*
Y11933D01*
X-63743Y927D01*
G03X-63061Y1233I283J283D01*
G02X-63064Y1336I1799J104D01*
G01Y1338D01*
G02X-61262Y-464I1802J0D01*
G01X-61264D01*
G02X-61367Y-461I1J1802D01*
G03X-61673Y-1143I-23J-399D01*
G01X-61432Y-1384D01*
X-61289Y-1241D01*
G02X-60000Y-698I1289J-1258D01*
G02X-58198Y-2500I0J-1802D01*
G02X-58741Y-3789I-1801J0D01*
G01X-58884Y-3932D01*
X-58567Y-4248D01*
X-58000D01*
G02Y-8752I0J-2252D01*
G01X-59500D01*
G02X-61092Y-8092I1J2252D01*
G01X-78592Y9408D01*
G02X-79252Y11000I1592J1593D01*
G01Y39000D01*
G02X-78592Y40592I2252J-1D01*
G01X-71752Y47433D01*
Y71000D01*
G02X-71092Y72592I2252J-1D01*
G01X-63602Y80082D01*
X-63587Y80121D01*
G02X-63082Y80893I2097J-820D01*
G01X-62093Y81882D01*
G02X-61321Y82387I1592J-1592D01*
G01X-61282Y82402D01*
X-43752Y99933D01*
Y113000D01*
G02X-43092Y114592I2252J-1D01*
G01X-41252Y116433D01*
Y131000D01*
G02X-40592Y132592I2252J-1D01*
G01X-12592Y160592D01*
G02X-11000Y161252I1593J-1592D01*
G01X50003D01*
G03X50402Y161624I0J400D01*
G02X50902Y162750I1798J-124D01*
G02Y165250I1298J1250D01*
G02X50398Y166500I1298J1250D01*
G02X50810Y167647I1803J0D01*
G37*
G36*
G01X-24300Y177602D02*
G02X-23050Y177098I0J-1802D01*
G02X-21800Y177602I1250J-1298D01*
G02X-19998Y175800I0J-1802D01*
G02X-20398Y174668I-1802J0D01*
G03X-20390Y174409I156J-125D01*
G02X-19924Y173200I-1336J-1209D01*
G01Y173199D01*
G02X-20421Y171957I-1802J1D01*
G03X-20422Y171682I145J-138D01*
G02X-19936Y170451I-1316J-1231D01*
G02X-21738Y168649I-1802J0D01*
G02X-22988Y169153I0J1802D01*
G02X-24238Y168649I-1250J1298D01*
G02X-26040Y170451I0J1802D01*
G02X-25541Y171695I1802J-1D01*
G03X-25540Y171970I-145J138D01*
G02X-26028Y173203I1314J1233D01*
G02X-25630Y174333I1803J0D01*
G03X-25637Y174592I-156J125D01*
G02X-26102Y175800I1337J1208D01*
G02X-24300Y177602I1802J0D01*
G37*
G36*
G01X247956Y176782D02*
G02X246698Y178500I544J1718D01*
G02X250302I1802J0D01*
G01Y178499D01*
G02X250272Y178172I-1802J0D01*
G03X250544Y177718I393J-73D01*
G02X251250Y177298I-544J-1718D01*
G02X252500Y177802I1250J-1298D01*
G02X254302Y176000I0J-1802D01*
G02X253798Y174750I-1802J0D01*
G02Y172250I-1298J-1250D01*
G02X254302Y171000I-1298J-1250D01*
G02X252500Y169198I-1802J0D01*
G02X251250Y169702I0J1802D01*
G02X250000Y169198I-1250J1298D01*
G02X248198Y171000I0J1802D01*
G02X248702Y172250I1802J0D01*
G02Y174750I1298J1250D01*
G02X248198Y176000I1298J1250D01*
G01Y176001D01*
G02X248228Y176328I1802J0D01*
G03X247956Y176782I-393J73D01*
G37*
G36*
G01X150637Y186254D02*
G03X151363I363J167D01*
G02X153000Y187302I1637J-755D01*
G02Y183698I0J-1802D01*
G02X151363Y184746I0J1803D01*
G03X150637I-363J-167D01*
G02X149000Y183698I-1637J755D01*
G02Y187302I0J1802D01*
G02X150637Y186254I0J-1803D01*
G37*
G36*
G01X155906Y190568D02*
G02X155198Y192000I1094J1432D01*
G02X158802I1802J0D01*
G02X158094Y190568I-1802J0D01*
G03Y189932I242J-318D01*
G02X158802Y188500I-1094J-1432D01*
G02X155198I-1802J0D01*
G02X155906Y189932I1802J0D01*
G03Y190568I-242J318D01*
G37*
G36*
G01X211000Y190798D02*
G02Y197202I0J3202D01*
G02X213803Y195548I0J-3202D01*
G03X214398Y195425I350J194D01*
G02X215500Y195802I1103J-1425D01*
G02X216750Y195298I0J-1802D01*
G02X218000Y195802I1250J-1298D01*
G02X219802Y194000I0J-1802D01*
G02X219298Y192750I-1802J0D01*
G02Y190250I-1298J-1250D01*
G02Y187750I-1298J-1250D01*
G02Y185250I-1298J-1250D01*
G02Y182750I-1298J-1250D01*
G02X219802Y181500I-1298J-1250D01*
G02X218000Y179698I-1802J0D01*
G02X216750Y180202I0J1802D01*
G02X215500Y179698I-1250J1298D01*
G02X213698Y181500I0J1802D01*
G02X214202Y182750I1802J0D01*
G02Y185250I1298J1250D01*
G02Y187750I1298J1250D01*
G02Y190250I1298J1250D01*
G02X213711Y191287I1298J1249D01*
G03X213057Y191546I-397J-48D01*
G02X211000Y190798I-2057J2454D01*
G37*
G36*
G01X4362Y197263D02*
G03X4622Y197264I129J152D01*
G02X5800Y197702I1178J-1365D01*
G02X7081Y197167I0J-1801D01*
G02X8350Y197690I1269J-1279D01*
G01X8351D01*
G02X10153Y195888I0J-1802D01*
G02X9675Y194666I-1801J0D01*
G02X10207Y193388I-1269J-1278D01*
G02X9821Y192274I-1802J0D01*
G03X9831Y192015I157J-124D01*
G02X10302Y190800I-1332J-1215D01*
G02X8500Y188998I-1802J0D01*
G02X7250Y189502I0J1802D01*
G02X6000Y188998I-1250J1298D01*
G02X4740Y189512I0J1801D01*
G03X4460I-140J-143D01*
G02X3200Y188998I-1260J1287D01*
G02X1398Y190800I0J1802D01*
G02X1857Y192002I1803J0D01*
G03X1856Y192269I-149J133D01*
G02X1388Y193481I1335J1212D01*
G02X1852Y194688I1802J0D01*
G02X1390Y195892I1340J1205D01*
G02X3192Y197694I1802J0D01*
G01X3193D01*
G02X4362Y197263I0J-1802D01*
G37*
G36*
G01X40137Y197754D02*
G03X40863I363J167D01*
G02X42500Y198802I1637J-755D01*
G02Y195198I0J-1802D01*
G02X40863Y196246I0J1803D01*
G03X40137I-363J-167D01*
G02X36863I-1637J755D01*
G03X36137I-363J-167D01*
G02X34500Y195198I-1637J755D01*
G02X33068Y195906I0J1802D01*
G03X32432I-318J-242D01*
G02X31000Y195198I-1432J1094D01*
G02Y198802I0J1802D01*
G02X32432Y198094I0J-1802D01*
G03X33068I318J242D01*
G02X34500Y198802I1432J-1094D01*
G02X36137Y197754I0J-1803D01*
G03X36863I363J167D01*
G02X40137I1637J-755D01*
G37*
G36*
G01X-22230Y204370D02*
G03X-21970I130J152D01*
G02X-20800Y204802I1171J-1370D01*
G02X-18998Y203000I0J-1802D01*
G02X-19430Y201830I-1802J1D01*
G03Y201570I152J-130D01*
G02X-18998Y200400I-1370J-1171D01*
G02X-19555Y199097I-1803J0D01*
G03X-19569Y198823I138J-144D01*
G02X-19136Y197651I-1370J-1172D01*
G02X-20938Y195849I-1802J0D01*
G02X-22188Y196353I0J1802D01*
G02X-23438Y195849I-1250J1298D01*
G02X-25240Y197651I0J1802D01*
G02X-24731Y198906I1802J0D01*
G03X-24729Y199184I-143J140D01*
G02X-25225Y200425I1306J1242D01*
G02X-24792Y201596I1802J-1D01*
G03X-24790Y201853I-152J130D01*
G02X-25202Y203000I1391J1147D01*
G02X-23400Y204802I1802J0D01*
G02X-22230Y204370I-1J-1802D01*
G37*
G36*
G01X98731Y204822D02*
G02X100376Y205504I1646J-1645D01*
G01X101334D01*
G02X102979Y204822I-1J-2327D01*
G01X103781Y204020D01*
G02X104027Y203730I-1645J-1645D01*
G02X104820Y203870I795J-2187D01*
G01X121092D01*
G02X122737Y203188I-1J-2327D01*
G01X123919Y202006D01*
G02X124600Y200361I-1646J-1645D01*
G01Y199179D01*
G02X123919Y197534I-2327J0D01*
G01X123497Y197112D01*
G03X123780Y196430I283J-282D01*
G01X127485D01*
G02X130309I1412J-759D01*
G01X133620D01*
G02X133781Y196424I-6J-2327D01*
G02X135196Y197274I1415J-753D01*
G02X136798Y195672I0J-1602D01*
G02X136399Y194614I-1602J0D01*
G01X136843Y194170D01*
G02X137524Y192525I-1646J-1645D01*
G01Y192523D01*
G02X137496Y192164I-2326J1D01*
G03X137891Y191702I395J-62D01*
G01X137959D01*
G02X139604Y191020I-1J-2327D01*
G01X142545Y188079D01*
G03X143222Y188296I283J283D01*
G02X144246Y189637I1778J-296D01*
G03Y190363I-167J363D01*
G02X143198Y192000I755J1637D01*
G02X146802I1802J0D01*
G02X145754Y190363I-1803J0D01*
G03Y189637I167J-363D01*
G02X146802Y188000I-755J-1637D01*
G02X145296Y186222I-1803J0D01*
G03X145079Y185545I66J-394D01*
G01X151428Y179196D01*
G02X152110Y177551I-1645J-1646D01*
G01Y140125D01*
G02X151428Y138480I-2327J1D01*
G01X142632Y129684D01*
X142672Y129566D01*
G02X142757Y129052I-1517J-515D01*
G01Y129050D01*
G02X142170Y127811I-1601J0D01*
G03X142176Y127187I253J-310D01*
G02X142786Y125929I-992J-1258D01*
G02X139582I-1602J0D01*
G02X139622Y126283I1602J-2D01*
G03X139154Y126764I-390J89D01*
G02X138705Y126720I-450J2283D01*
G02X138629Y126722I23J2326D01*
G02X137215Y125872I-1414J751D01*
G02X135801Y126720I0J1603D01*
G01X135335D01*
X132871Y124257D01*
G02X131589Y123604I-1645J1645D01*
G02X131133Y123052I-1432J719D01*
G03X131126Y122423I243J-317D01*
G02X131725Y121174I-1003J-1249D01*
G02X130123Y119572I-1602J0D01*
G02X128863Y120185I0J1601D01*
G03X128233Y120184I-315J-247D01*
G02X126972Y119570I-1261J988D01*
G02X125712Y120183I0J1601D01*
G03X125082I-315J-247D01*
G02X122562I-1260J988D01*
G03X121932I-315J-247D01*
G02X121661Y119912I-1260J989D01*
G03Y119283I247J-314D01*
G02X121961Y118974I-989J-1260D01*
G01X130914D01*
X133400Y121461D01*
G02X134073Y121740I673J-672D01*
G01X136089D01*
G02X137619Y122590I1530J-952D01*
G02X139421Y120788I0J-1802D01*
G02X139391Y120462I-1802J1D01*
G01X139388Y120444D01*
Y120226D01*
X139589D01*
G02X140879Y119682I0J-1802D01*
G03X141451I286J280D01*
G02X142741Y120226I1290J-1258D01*
G02X144368Y119199I0J-1802D01*
G03X145071Y119164I361J172D01*
G02X145404Y119588I1924J-1169D01*
G01X145991Y120175D01*
G02X147575Y120834I1592J-1592D01*
G02X148234Y122418I2251J-8D01*
G01X148821Y123005D01*
G02X150405Y123664I1592J-1592D01*
G02X151064Y125248I2251J-8D01*
G01X151651Y125835D01*
G02X153234Y126494I1592J-1592D01*
G01Y127486D01*
G02X153453Y128455I2252J0D01*
G01X153467Y128482D01*
G02X153894Y129078I2019J-996D01*
G01X155875Y131059D01*
G02X156403Y131451I1592J-1592D01*
G03X156489Y132095I-188J353D01*
G02X155922Y133407I1234J1312D01*
G02X157724Y135209I1802J0D01*
G02X159336Y134212I0J-1802D01*
G03X160052I358J179D01*
G02X161664Y135209I1612J-805D01*
G01X161665D01*
G02X162224Y135120I0J-1802D01*
G03X162748Y135500I124J380D01*
G01Y135902D01*
X161586D01*
G02X159994Y136562I1J2252D01*
G01X159408Y137148D01*
G02X158748Y138740I1592J1593D01*
G01Y139568D01*
G02X159408Y141160I2252J-1D01*
G01X159993Y141745D01*
X159892Y141884D01*
G02X159460Y143211I1819J1326D01*
G02X160119Y144803I2251J1D01*
G01X161248Y145933D01*
Y146709D01*
X161094Y146744D01*
G02Y150256I406J1756D01*
G01X161248Y150291D01*
Y150709D01*
X161094Y150744D01*
G02Y154256I406J1756D01*
G01X161248Y154291D01*
Y172672D01*
G02X161908Y174264I2252J-1D01*
G01X162736Y175092D01*
G02X164328Y175752I1593J-1592D01*
G01X166000D01*
G02X166884Y175570I-3J-2251D01*
G02X166994Y175688I1701J-1475D01*
G01X167580Y176274D01*
G02X169172Y176934I1593J-1592D01*
G01X170000D01*
G02X171586Y176280I-1J-2252D01*
G02X173172Y176934I1587J-1598D01*
G01X174000D01*
G02X175592Y176274I-1J-2252D01*
G01X176071Y175795D01*
X176207Y175882D01*
G02X177425Y176240I1218J-1893D01*
G01X179001D01*
G02X180592Y175581I0J-2251D01*
G01X181380Y174793D01*
G02X182040Y173201I-1592J-1593D01*
G01Y168556D01*
G03X182434Y168156I400J0D01*
G02X184656Y165905I-29J-2251D01*
G01Y165904D01*
G02X183997Y164313I-2251J0D01*
G01X181252Y161567D01*
Y155949D01*
G03X181802Y155579I400J1D01*
G02X182405Y155697I603J-1484D01*
G02Y152493I0J-1602D01*
G02X181802Y152611I0J1602D01*
G03X181252Y152241I-150J-371D01*
G01Y146433D01*
X187066Y140618D01*
G03X187748Y140901I282J283D01*
G01Y150437D01*
G02X192252I2252J0D01*
G01Y102643D01*
G02X191592Y101051I-2252J1D01*
G01X186301Y95760D01*
X186412Y95620D01*
G02X186637Y95254I-1412J-1120D01*
G03X187363I363J167D01*
G02X189000Y96302I1637J-755D01*
G02X189694Y96163I0J-1802D01*
G03X190239Y96617I154J369D01*
G02X190198Y96998I1761J382D01*
G01Y97000D01*
G02X192000Y95198I1802J0D01*
G02X191306Y95337I0J1802D01*
G03X190761Y94883I-154J-369D01*
G02X190802Y94502I-1761J-382D01*
G01Y94500D01*
G02X189000Y92698I-1802J0D01*
G02X187363Y93746I0J1803D01*
G03X186637I-363J-167D01*
G02X185754Y92863I-1637J754D01*
G03Y92137I167J-363D01*
G02X186802Y90500I-755J-1637D01*
G02X183198I-1802J0D01*
G02X184246Y92137I1803J0D01*
G03Y92863I-167J363D01*
G02X183880Y93088I754J1637D01*
G01X183740Y93199D01*
X183339Y92798D01*
G02X181747Y92138I-1593J1592D01*
G01X179874D01*
G03X179591Y91456I0J-400D01*
G01X183180Y87867D01*
G02X184354Y88302I1174J-1367D01*
G02X186156Y86500I0J-1802D01*
G02X184390Y84698I-1802J0D01*
G03X183998Y84298I8J-400D01*
G01Y82569D01*
G02X183339Y80978I-2251J0D01*
G01X180857Y78496D01*
G03X181115Y77814I283J-283D01*
G02X182802Y76016I-115J-1798D01*
G02X181808Y74405I-1802J0D01*
G03Y73690I179J-357D01*
G02X182802Y72079I-808J-1611D01*
G02X181000Y70277I-1802J0D01*
G01X180998D01*
G02X180557Y70332I1J1802D01*
G03X180058Y69945I-99J-388D01*
G01Y29827D01*
X193485Y16400D01*
X205352D01*
G02X206943Y15741I0J-2251D01*
G01X209461Y13223D01*
G03X210136Y13431I282J283D01*
G02X215000Y17452I4864J-931D01*
G01X215001D01*
G02X217173Y16950I-1J-4952D01*
G03X217748Y17309I175J359D01*
G01Y21000D01*
G02X222252I2252J0D01*
G01Y17309D01*
G03X222827Y16950I400J0D01*
G02X225000Y17452I2173J-4450D01*
G02X226414Y17246I1J-4952D01*
G01X226528Y17212D01*
X229908Y20592D01*
G02X231500Y21252I1593J-1592D01*
G01X237500D01*
G02X239752Y19000I0J-2252D01*
G02X238352Y16916I-2251J0D01*
G03X238242Y16243I151J-370D01*
G02X239626Y14266I-3242J-3743D01*
G03X240374I374J143D01*
G02X249626I4626J-1765D01*
G03X250374I374J143D01*
G02X259626I4626J-1765D01*
G03X260374I374J143D01*
G02X265000Y17452I4626J-1765D01*
G02X269644Y14219I0J-4952D01*
G03X270391Y14212I375J139D01*
G02X275000Y17352I4609J-1813D01*
G02X279952Y12400I0J-4952D01*
G02X279145Y9691I-4952J0D01*
G03X279302Y9114I335J-219D01*
G02Y5886I-802J-1614D01*
G03X279145Y5309I178J-358D01*
G02X279952Y2600I-4145J-2709D01*
G02X270048I-4952J0D01*
G02X273008Y7134I4952J0D01*
G03Y7866I-161J366D01*
G02X270356Y10681I1992J4534D01*
G03X269609Y10688I-375J-139D01*
G02X265000Y7548I-4609J1813D01*
G02X260374Y10734I0J4951D01*
G03X259626I-374J-143D01*
G02X256766Y7874I-4626J1766D01*
G03Y7126I143J-374D01*
G02X259952Y2500I-1765J-4626D01*
G02X255000Y-2452I-4952J0D01*
G01X254999D01*
G02X253586Y-2246I0J4952D01*
G01X253472Y-2212D01*
X251092Y-4592D01*
G02X249500Y-5252I-1593J1592D01*
G01X212500D01*
G02X210908Y-4592I1J2252D01*
G01X208408Y-2092D01*
G02X207748Y-500I1592J1593D01*
G01Y8567D01*
X204418Y11898D01*
X192551D01*
G02X190960Y12557I0J2251D01*
G01X176215Y27302D01*
G02X175556Y28893I1592J1591D01*
G01Y78630D01*
G02X175558Y78738I2251J12D01*
G03X175174Y78824I-200J9D01*
G02X174686Y78095I-2079J864D01*
G01X174351Y77760D01*
G03X174337Y77208I282J-283D01*
G02X174802Y76000I-1337J-1208D01*
G02X173000Y74198I-1802J0D01*
G02X172757Y74214I-3J1802D01*
G03X172304Y73818I-53J-396D01*
G01Y19649D01*
G02X170052Y17398I-2252J1D01*
G01X170050D01*
G02X168438Y18079I1J2251D01*
G03X167752Y17800I-286J-279D01*
G01Y-2500D01*
G02X167092Y-4092I-2252J1D01*
G01X164092Y-7092D01*
G02X162500Y-7752I-1593J1592D01*
G01X152000D01*
G02X150408Y-7092I1J2252D01*
G01X148408Y-5092D01*
G02X147748Y-3500I1592J1593D01*
G01Y-2415D01*
G02X147643Y-2312I2259J2408D01*
G03X147357I-143J-140D01*
G02X145000Y-3302I-2357J2311D01*
G02X142770Y-2435I0J3301D01*
G03X142230I-270J-295D01*
G02X140000Y-3302I-2230J2434D01*
G02X136698Y0I0J3302D01*
G02X137565Y2230I3301J0D01*
G03Y2770I-295J270D01*
G02X136698Y5000I2434J2230D01*
G02X137774Y7438I3302J-1D01*
G01Y39078D01*
X134426Y42426D01*
G02X133774Y44000I1574J1574D01*
G01Y62078D01*
X131223Y64628D01*
X131081Y64486D01*
G02X130992Y64402I-1280J1268D01*
G03Y64102I133J-150D01*
G02X131601Y62752I-1192J-1350D01*
G02X127997I-1802J0D01*
G02X128480Y63980I1803J0D01*
G03Y64524I-293J272D01*
G02X127997Y65752I1320J1228D01*
G02X128533Y67034I1801J0D01*
G01X128675Y67176D01*
X128426Y67426D01*
G02X127774Y69000I1574J1574D01*
G01Y75089D01*
X127637Y75135D01*
G02X127120Y75423I508J1519D01*
G03X126464Y75116I-256J-307D01*
G01Y48238D01*
G02X125811Y46664I-2226J1D01*
G01X122222Y43075D01*
G02X120648Y42422I-1575J1573D01*
G01X107974D01*
X107477Y41926D01*
G02X105903Y41274I-1574J1574D01*
G01X82521D01*
G03X82154Y40715I0J-400D01*
G02X82302Y40000I-1653J-715D01*
G02X80500Y38198I-1802J0D01*
G02X79272Y38681I0J1803D01*
G03X78728I-272J-293D01*
G02X77500Y38198I-1228J1320D01*
G02X76250Y38702I0J1802D01*
G02X75000Y38198I-1250J1298D01*
G02X73619Y38842I0J1803D01*
G03X72945Y38742I-306J-257D01*
G02X70000Y36798I-2945J1259D01*
G02X66798Y40000I0J3202D01*
G02X66894Y40777I3202J-1D01*
G03X66506Y41274I-388J97D01*
G01X65994D01*
G03X65606Y40777I0J-400D01*
G02X65702Y40000I-3106J-778D01*
G02X62500Y36798I-3202J0D01*
G01X62499D01*
G02X60286Y37686I0J3202D01*
G03X59736Y37688I-276J-289D01*
G02X58501Y37198I-1235J1312D01*
G01X58500D01*
G02X56701Y38897I0J1802D01*
G03X56302Y39274I-399J-23D01*
G01X55698D01*
G03X55299Y38897I0J-400D01*
G02X51701I-1799J103D01*
G03X51302Y39274I-399J-23D01*
G01X50698D01*
G03X50299Y38897I0J-400D01*
G02X49594Y37568I-1799J103D01*
G03Y36932I242J-318D01*
G02X50302Y35500I-1094J-1432D01*
G02X48500Y33698I-1802J0D01*
G02X47448Y34037I0J1802D01*
G03X46849Y33873I-233J-325D01*
G02X46690Y33586I-1649J726D01*
G03X46720Y33326I165J-113D01*
G02X47298Y32124I-1220J-1326D01*
G03X47697Y31752I399J28D01*
G01X62000D01*
G02X63592Y31092I-1J-2252D01*
G01X75481Y19203D01*
X75562Y19201D01*
G02X78702Y16000I-62J-3201D01*
G02X75500Y12798I-3202J0D01*
G02X72299Y15938I0J3202D01*
G01X72297Y16019D01*
X61067Y27248D01*
X13000D01*
G02X11408Y27908I0J2250D01*
G01X9834Y29482D01*
G03X9179Y29345I-283J-283D01*
G02X9158Y29295I-1672J673D01*
G03X9431Y28750I368J-156D01*
G02X10802Y27000I-431J-1750D01*
G02X7198I-1802J0D01*
G02X7342Y27705I1802J-1D01*
G03X7069Y28250I-368J156D01*
G02X5698Y30000I431J1750D01*
G02X6845Y31679I1802J0D01*
G03X6982Y32334I-146J372D01*
G01X5067Y34248D01*
X-7567D01*
X-9248Y32567D01*
Y28000D01*
G02X-13752I-2252J0D01*
G01Y33500D01*
G02X-13092Y35092I2252J-1D01*
G01X-10092Y38092D01*
G02X-8500Y38752I1593J-1592D01*
G01X6000D01*
G02X7592Y38092I-1J-2252D01*
G01X13933Y31752D01*
X43303D01*
G03X43702Y32124I0J400D01*
G02X44010Y33014I1798J-124D01*
G03X43980Y33274I-165J113D01*
G02X43472Y34089I1220J1326D01*
G03X42800Y34252I-383J-114D01*
G02X41500Y33698I-1300J1248D01*
G02X39698Y35500I0J1802D01*
G02X40216Y36764I1801J0D01*
G03X40226Y37034I-142J140D01*
G02X39798Y38200I1374J1166D01*
G01Y38202D01*
G02X39884Y38751I1802J-1D01*
G03X39504Y39274I-381J123D01*
G01X31000D01*
G02X29426Y39926I0J2226D01*
G01X28703Y40648D01*
X28565Y40546D01*
G02X28066Y40289I-1065J1454D01*
G03X27884Y39653I125J-380D01*
G02X28302Y38500I-1384J-1154D01*
G02X27798Y37250I-1802J0D01*
G02X28302Y36000I-1298J-1250D01*
G02X26500Y34198I-1802J0D01*
G02X25250Y34702I0J1802D01*
G02X24000Y34198I-1250J1298D01*
G02X22198Y36000I0J1802D01*
G02X22702Y37250I1802J0D01*
G02X22198Y38500I1298J1250D01*
G01Y38501D01*
G02X22554Y39576I1802J0D01*
G03X22282Y40211I-321J238D01*
G02X20739Y41616I218J1789D01*
G01X20705Y41774D01*
X3501D01*
G02X1927Y42426I0J2226D01*
G01X-22574Y66927D01*
G02X-23226Y68501I1574J1574D01*
G01Y82368D01*
G03X-23726Y82755I-400J0D01*
G02X-24174Y82698I-450J1745D01*
G01X-24177D01*
G02Y86302I0J1802D01*
G01X-24174D01*
G02X-23726Y86245I-2J-1802D01*
G03X-23226Y86632I100J387D01*
G01Y96417D01*
G02X-22574Y97991I2226J0D01*
G01X-12267Y108298D01*
G02X-10693Y108950I1574J-1574D01*
G01X-4231D01*
X-4183Y109080D01*
G02X-3672Y109872I2084J-784D01*
G01X-3237Y110308D01*
X-3349Y110447D01*
G02X-3700Y111448I1252J1001D01*
G02X-3087Y112708I1601J0D01*
G03Y113338I-247J315D01*
G02X-3700Y114598I988J1260D01*
G02X-2750Y116061I1602J0D01*
G01Y118976D01*
G02X-2098Y120550I2226J0D01*
G01X3959Y126607D01*
G02X5533Y127260I1575J-1573D01*
G01X8111D01*
X13926Y133074D01*
G02X15500Y133726I1574J-1574D01*
G01X53500D01*
G02X55074Y133074I0J-2226D01*
G01X64750Y123399D01*
X64886Y123492D01*
G02X65896Y123802I1011J-1492D01*
G01X65897D01*
G02X67699Y122000I0J-1802D01*
G02X67291Y120858I-1802J0D01*
G01X72060Y116089D01*
G02X72997Y116352I937J-1538D01*
G02X74799Y114550I0J-1802D01*
G02X74536Y113613I-1801J0D01*
G01X75922Y112226D01*
X79000D01*
G03X79400Y112626I0J400D01*
G01Y115976D01*
G02X78862Y116377I1107J2046D01*
G01X78816Y116423D01*
G03X78138Y116203I-283J-283D01*
G02X76556Y114854I-1582J253D01*
G02X74954Y116456I0J1602D01*
G02X75568Y117717I1602J0D01*
G03Y118347I-247J315D01*
G02X74954Y119608I988J1261D01*
G02X74965Y119792I1602J-3D01*
G03X74568Y120238I-398J46D01*
G01X72409D01*
G02X70764Y120919I0J2327D01*
G01X68225Y123458D01*
G02X67544Y125103I1646J1645D01*
G01Y178174D01*
X67083D01*
G02Y182826I0J2326D01*
G01X67536D01*
X77746Y193036D01*
Y195674D01*
G02X82398I2326J0D01*
G01Y195559D01*
G03X83081Y195276I400J0D01*
G01X83169Y195364D01*
G02X84814Y196046I1646J-1645D01*
G01X86390D01*
X86435Y196182D01*
G02X87954Y197274I1519J-510D01*
G02X89556Y195672I0J-1602D01*
G02X89259Y194743I-1601J0D01*
G01X89161Y194606D01*
X89525Y194242D01*
X89665Y194352D01*
G02X91103Y194850I1439J-1829D01*
G02X92666Y194246I-1J-2327D01*
G02X92912Y194443I1574J-1713D01*
G03X92959Y194726I-114J164D01*
G02X92646Y195677I1288J951D01*
G02X95850I1602J0D01*
G02X95533Y194721I-1602J1D01*
G03X95579Y194438I161J-119D01*
G02X95826Y194238I-1337J-1904D01*
G01X97274Y195685D01*
Y202401D01*
G02X97955Y204046I2327J0D01*
G01X98731Y204822D01*
G37*
G36*
G01X250047Y213302D02*
G02X250204Y213295I-2J-1802D01*
G02X251994Y214888I1790J-209D01*
G02X253773Y213373I0J-1802D01*
G02X253994Y213387I224J-1788D01*
G02X254248Y213369I0J-1801D01*
G02X256021Y214851I1773J-320D01*
G02Y211247I0J-1802D01*
G02X255767Y211265I0J1801D01*
G02X254704Y209929I-1773J320D01*
G03X254563Y209296I158J-367D01*
G02X255017Y208100I-1348J-1196D01*
G02X254513Y206850I-1802J0D01*
G02X255017Y205600I-1298J-1250D01*
G02X253215Y203798I-1802J0D01*
G02X251965Y204302I0J1802D01*
G02X249465I-1250J1298D01*
G02X248215Y203798I-1250J1298D01*
G02X246413Y205600I0J1802D01*
G02X246917Y206850I1802J0D01*
G02X246413Y208100I1298J1250D01*
G02X248202Y209902I1802J0D01*
G03X248535Y210520I-2J400D01*
G02X248245Y211500I1511J980D01*
G02X250047Y213302I1802J0D01*
G37*
G36*
G01X276006Y217408D02*
G02X278506I1250J-1298D01*
G02X279756Y217912I1250J-1298D01*
G02X281558Y216110I0J-1802D01*
G02X281054Y214860I-1802J0D01*
G02X281558Y213610I-1298J-1250D01*
G02X279756Y211808I-1802J0D01*
G02X278506Y212312I0J1802D01*
G02X276006I-1250J1298D01*
G02X274756Y211808I-1250J1298D01*
G02X272954Y213610I0J1802D01*
G02X273458Y214860I1802J0D01*
G02X272954Y216110I1298J1250D01*
G02X274756Y217912I1802J0D01*
G02X276006Y217408I0J-1802D01*
G37*
G36*
G01X233250Y234298D02*
G02X235750I1250J-1298D01*
G02X237000Y234802I1250J-1298D01*
G02X238800Y233092I0J-1802D01*
G02X240042Y231379I-560J-1713D01*
G02X238240Y229577I-1802J0D01*
G02X236990Y230081I0J1802D01*
G02X234490I-1250J1298D01*
G02X231990I-1250J1298D01*
G02X229490I-1250J1298D01*
G02X226990I-1250J1298D01*
G02X224490I-1250J1298D01*
G02X221990I-1250J1298D01*
G02X220740Y229577I-1250J1298D01*
G02X218938Y231379I0J1802D01*
G02X220201Y233098I1801J0D01*
G02X222000Y234802I1799J-98D01*
G02X223250Y234298I0J-1802D01*
G02X225750I1250J-1298D01*
G02X228250I1250J-1298D01*
G02X230750I1250J-1298D01*
G02X233250I1250J-1298D01*
G37*
G36*
G01X148750Y232198D02*
G02X150552Y234000I0J1802D01*
G02X150551Y233948I-1802J9D01*
G03X151142Y233584I400J-12D01*
G02X152000Y233802I859J-1584D01*
G02X150198Y232000I0J-1802D01*
G02X150199Y232052I1802J-9D01*
G03X149608Y232416I-400J12D01*
G02X148750Y232198I-859J1584D01*
G37*
G54D29*
X313000Y51669D03*
G54D32*
X27500Y232500D03*
G54D27*
X69400Y14800D03*
X120500Y16810D03*
X-69200Y18200D03*
X313500Y18669D03*
X-65077Y18923D03*
X-27000Y19000D03*
X118500Y21500D03*
X-82500Y23400D03*
X289000Y26800D03*
X95500Y31500D03*
X-31000Y43500D03*
X294000Y52000D03*
X258500Y62000D03*
X216025Y63264D03*
X239500Y64473D03*
X309178Y65000D03*
X256500Y67500D03*
X247355Y68355D03*
X-35211Y79934D03*
X-24177Y105995D03*
X203500Y117000D03*
X205552Y125649D03*
X149000Y130150D03*
X154572Y136559D03*
X206652Y142749D03*
X209000Y153000D03*
X190000Y163000D03*
X223000Y170500D03*
X-5000Y176000D03*
X-500Y182500D03*
X60450Y184250D03*
X161000Y193000D03*
X51800Y196000D03*
X61000D03*
X46000Y205800D03*
X109999Y206500D03*
X10750Y209250D03*
X139500Y229000D03*
X135500Y236500D03*
G54D25*
X265000Y2500D03*
X194000Y194000D03*
G54D24*
X127500Y-12500D03*
X137500D03*
X162500D03*
X127500Y-2500D03*
X172500D03*
X127500Y7500D03*
X172500D03*
X-22000Y39000D03*
G54D28*
X127500Y17500D03*
G54D30*
X308472Y77199D03*
X315558D03*
G54D31*
X37500Y222500D03*
X47500D03*
X57500D03*
X67500D03*
X37500Y232500D03*
X47500D03*
X57500D03*
X67500D03*
G54D26*
X0Y0D03*
X196850D03*
X0Y224397D03*
X196850D03*
%LPD*%
G75*
G36*
G01X104706Y52058D02*
X115341Y62693D01*
G02X116019Y62472I283J-283D01*
G03X117799Y60950I1780J280D01*
G03X118016Y60963I1J1802D01*
G02X118464Y60566I48J-397D01*
G01Y52710D01*
X117130Y51376D01*
X104989D01*
G02X104706Y52058I0J400D01*
G37*
G36*
G01X138800Y98248D02*
X147067D01*
X151147Y94169D01*
G02X151070Y93544I-283J-282D01*
G03X150750Y93298I932J-1543D01*
G03X149500Y93802I-1250J-1298D01*
G03X148272Y93319I0J-1803D01*
G02X147728I-272J293D01*
G03X146500Y93802I-1228J-1320D01*
G03Y90198I0J-1802D01*
G03X147728Y90681I0J1803D01*
G02X148272I272J-293D01*
G03X149500Y90198I1228J1320D01*
G03X150750Y90702I0J1802D01*
G03X151876Y90202I1250J1298D01*
G02X152248Y89803I-28J-399D01*
G01Y84433D01*
X148908Y81092D01*
G03X148248Y79500I1592J-1593D01*
G01Y71123D01*
G03X148411Y70284I2252J2D01*
G02X147942Y69747I-371J-149D01*
G03X147500Y69802I-442J-1747D01*
G03X149302Y68000I0J-1802D01*
G03X149296Y68146I-1802J-1D01*
G02X149978Y68461I399J33D01*
G01X152664Y65775D01*
G02X152675Y65221I-283J-283D01*
G03X152363Y64754I1324J-1222D01*
G02X151637I-363J167D01*
G03X150000Y65802I-1637J-755D01*
G03Y62198I0J-1802D01*
G03X151637Y63246I0J1803D01*
G02X152363I363J-167D01*
G03X153246Y62363I1637J754D01*
G02Y61637I-167J-363D01*
G03X152198Y60000I755J-1637D01*
G03X155802I1802J0D01*
G03X154754Y61637I-1803J0D01*
G02Y62363I167J363D01*
G03X155221Y62675I-755J1636D01*
G02X155775Y62664I271J-294D01*
G01X157248Y61190D01*
Y29434D01*
X152066Y24252D01*
X150535D01*
G03X148943Y23592I1J-2252D01*
G01X146909Y21558D01*
G02X146226Y21841I-283J283D01*
G01Y41000D01*
G03X145574Y42574I-2226J0D01*
G01X141226Y46922D01*
Y60655D01*
G02X141749Y61036I400J0D01*
G03X142299Y60950I550J1716D01*
G03X144101Y62752I0J1802D01*
G03X143618Y63980I-1803J0D01*
G02Y64524I293J272D01*
G03X144101Y65752I-1320J1228D01*
G03X142299Y67554I-1802J0D01*
G03X140895Y66881I0J-1801D01*
G02X140300Y66849I-312J251D01*
G01X136708Y70440D01*
Y85899D01*
G02X136899Y86099I200J0D01*
G03X138082Y86711I-78J1600D01*
G02X138712I315J-247D01*
G03X139973Y86097I1261J988D01*
G03Y89301I0J1602D01*
G03X138712Y88687I0J-1602D01*
G02X138082I-315J247D01*
G03X136899Y89299I-1261J-988D01*
G02X136708Y89499I9J200D01*
G01Y91047D01*
G02X136902Y91247I200J0D01*
G03Y94449I-49J1601D01*
G02X136708Y94649I6J200D01*
G01Y95749D01*
G02X136899Y95949I200J0D01*
G03X138423Y97549I-78J1600D01*
G03X138405Y97789I-1602J1D01*
G02X138800Y98248I395J59D01*
G37*
G36*
G01D02*
X147067D01*
X151147Y94169D01*
G02X151070Y93544I-283J-282D01*
G03X150750Y93298I932J-1543D01*
G03X149500Y93802I-1250J-1298D01*
G03X148272Y93319I0J-1803D01*
G02X147728I-272J293D01*
G03X146500Y93802I-1228J-1320D01*
G03Y90198I0J-1802D01*
G03X147728Y90681I0J1803D01*
G02X148272I272J-293D01*
G03X149500Y90198I1228J1320D01*
G03X150750Y90702I0J1802D01*
G03X151876Y90202I1250J1298D01*
G02X152248Y89803I-28J-399D01*
G01Y84433D01*
X148908Y81092D01*
G03X148248Y79500I1592J-1593D01*
G01Y71123D01*
G03X148411Y70284I2252J2D01*
G02X147942Y69747I-371J-149D01*
G03X147500Y69802I-442J-1747D01*
G03X149302Y68000I0J-1802D01*
G03X149296Y68146I-1802J-1D01*
G02X149978Y68461I399J33D01*
G01X152664Y65775D01*
G02X152675Y65221I-283J-283D01*
G03X152363Y64754I1324J-1222D01*
G02X151637I-363J167D01*
G03X150000Y65802I-1637J-755D01*
G03Y62198I0J-1802D01*
G03X151637Y63246I0J1803D01*
G02X152363I363J-167D01*
G03X153246Y62363I1637J754D01*
G02Y61637I-167J-363D01*
G03X152198Y60000I755J-1637D01*
G03X155802I1802J0D01*
G03X154754Y61637I-1803J0D01*
G02Y62363I167J363D01*
G03X155221Y62675I-755J1636D01*
G02X155775Y62664I271J-294D01*
G01X157248Y61190D01*
Y29434D01*
X152066Y24252D01*
X150535D01*
G03X148943Y23592I1J-2252D01*
G01X146909Y21558D01*
G02X146226Y21841I-283J283D01*
G01Y41000D01*
G03X145574Y42574I-2226J0D01*
G01X141226Y46922D01*
Y60655D01*
G02X141749Y61036I400J0D01*
G03X142299Y60950I550J1716D01*
G03X144101Y62752I0J1802D01*
G03X143618Y63980I-1803J0D01*
G02Y64524I293J272D01*
G03X144101Y65752I-1320J1228D01*
G03X142299Y67554I-1802J0D01*
G03X140895Y66881I0J-1801D01*
G02X140300Y66849I-312J251D01*
G01X136708Y70440D01*
Y85899D01*
G02X136899Y86099I200J0D01*
G03X138082Y86711I-78J1600D01*
G02X138712I315J-247D01*
G03X139973Y86097I1261J988D01*
G03Y89301I0J1602D01*
G03X138712Y88687I0J-1602D01*
G02X138082I-315J247D01*
G03X136899Y89299I-1261J-988D01*
G02X136708Y89499I9J200D01*
G01Y91047D01*
G02X136902Y91247I200J0D01*
G03Y94449I-49J1601D01*
G02X136708Y94649I6J200D01*
G01Y95749D01*
G02X136899Y95949I200J0D01*
G03X138423Y97549I-78J1600D01*
G03X138405Y97789I-1602J1D01*
G02X138800Y98248I395J59D01*
G37*
G36*
G01X170752Y124000D02*
Y134891D01*
G02X171303Y135261I400J0D01*
G03X172147Y135094I851J2084D01*
G03X172806Y133510I2251J8D01*
G01X173393Y132923D01*
G03X174977Y132264I1592J1592D01*
G03X175636Y130680I2251J8D01*
G01X176346Y129970D01*
G03X177930Y129311I1592J1592D01*
G03X178589Y127727I2251J8D01*
G01X180248Y126067D01*
Y122701D01*
G02X179595Y122392I-400J0D01*
G03X178450Y122802I-1144J-1392D01*
G03Y119198I0J-1802D01*
G03X179595Y119608I1J1802D01*
G02X180248Y119299I253J-309D01*
G01Y109768D01*
X180106Y109725D01*
G03X178826Y108000I522J-1725D01*
G03X179330Y106750I1802J0D01*
G02X179324Y106190I-289J-277D01*
G01X177265Y104132D01*
X173927D01*
G03X172335Y103472I1J-2252D01*
G01X171279Y102416D01*
X171137Y102558D01*
X171136Y102559D01*
G03X169547Y103226I-1589J-1559D01*
G03X167973Y102574I0J-2226D01*
G01X165478Y100079D01*
G03X164826Y98505I1574J-1574D01*
G01Y91751D01*
X162934Y89860D01*
G02X162252Y90143I-282J283D01*
G01Y93000D01*
G03X161592Y94592I-2252J-1D01*
G01X152103Y104081D01*
X152166Y104209D01*
G03X152349Y105000I-1618J791D01*
G03X150547Y106802I-1802J0D01*
G03X149297Y106298I0J-1802D01*
G03X148047Y106802I-1250J-1298D01*
G03X146774Y106275I0J-1801D01*
G03X145500Y106802I-1273J-1275D01*
G03X143744Y105406I0J-1802D01*
G01X143709Y105252D01*
X140810D01*
G02X140527Y105934I0J400D01*
G01X143842Y109248D01*
X155897D01*
X157909Y107237D01*
G03X159501Y106578I1591J1592D01*
G01X160329D01*
G03X161921Y107237I1J2251D01*
G01X162508Y107824D01*
G03X163167Y109408I-1592J1592D01*
G03X164751Y110067I-8J2251D01*
G01X165338Y110654D01*
G03X165997Y112238I-1592J1592D01*
G03X167581Y112897I-8J2251D01*
G01X168168Y113484D01*
G03X168693Y114309I-1592J1592D01*
G01X168740Y114440D01*
X169692D01*
G03X171284Y115100I-1J2252D01*
G01X171871Y115687D01*
G03X172530Y117279I-1592J1591D01*
G01Y118107D01*
G03X171871Y119699I-2251J1D01*
G01X169627Y121943D01*
X170092Y122408D01*
G03X170752Y124000I-1592J1593D01*
G37*
G36*
G01X241836Y163248D02*
X251003D01*
G02X251402Y162828I0J-400D01*
G03X251398Y162696I2598J-145D01*
G01Y162500D01*
G03X252160Y160660I2603J0D01*
G01X254160Y158660D01*
G03X256000Y157898I1840J1841D01*
G01X259922D01*
X260898Y156922D01*
Y145578D01*
X254610Y139290D01*
G03X253852Y137594I1840J-1840D01*
G03X252921Y137169I165J-1594D01*
G02X252348Y137196I-273J292D01*
G03X251000Y137802I-1348J-1196D01*
G03Y134198I0J-1802D01*
G03X252348Y134804I0J1802D01*
G02X252921Y134831I300J-265D01*
G03X254016Y134398I1095J1168D01*
G03X254338Y134431I-1J1602D01*
G03X256450Y133348I2112J1518D01*
G03X258579Y134454I0J2602D01*
G03X258998Y134398I420J1546D01*
G01X259000D01*
G03X260602Y136000I0J1602D01*
G01Y136001D01*
G03X260116Y137150I-1602J0D01*
G01X260115Y137151D01*
X259972Y137293D01*
X265340Y142660D01*
G03X265851Y143386I-1841J1839D01*
G02X266537Y143448I361J-172D01*
G03X267947Y142699I1463J1052D01*
G02X268336Y142299I-11J-400D01*
G01Y140015D01*
X267835Y139514D01*
G02X267180Y139652I-282J283D01*
G03X265500Y140802I-1680J-652D01*
G03X263698Y139000I0J-1802D01*
G01Y138999D01*
G03X263966Y138054I1802J1D01*
G02X263875Y137532I-340J-210D01*
G03X262898Y135500I1625J-2032D01*
G03X265500Y132898I2602J0D01*
G01X267500D01*
G03X269340Y133660I0J2603D01*
G01X269566Y133887D01*
G02X270248Y133604I282J-283D01*
G01Y122184D01*
X264465Y116400D01*
X258929D01*
G03X257338Y115741I0J-2251D01*
G01X253460Y111863D01*
G03X252800Y110271I1592J-1593D01*
G01Y105204D01*
X243997Y96400D01*
X223346D01*
G02X223011Y97018I1J400D01*
G03X223302Y98000I-1511J982D01*
G03X222819Y99228I-1803J0D01*
G02Y99772I293J272D01*
G03Y102228I-1320J1228D01*
G02Y102772I293J272D01*
G03Y105228I-1320J1228D01*
G02Y105772I293J272D01*
G03Y108228I-1320J1228D01*
G02Y108772I293J272D01*
G03Y111228I-1320J1228D01*
G02Y111772I293J272D01*
G03X223302Y113000I-1320J1228D01*
G03X221500Y114802I-1802J0D01*
G03X220250Y114298I0J-1802D01*
G03X220124Y114408I-1247J-1301D01*
G02X220091Y115004I250J313D01*
G01X231144Y126057D01*
G03X231804Y127649I-1592J1593D01*
G01Y153216D01*
X241836Y163248D01*
G37*
G36*
G01X274420Y119417D02*
G03X274896Y119074I1248J1230D01*
G01X275008Y119019D01*
Y118750D01*
X295000D01*
X296250Y117500D01*
Y114900D01*
X270299D01*
G02X270016Y115583I0J400D01*
G01X273852Y119419D01*
G02X274420Y119417I283J-283D01*
G37*
G36*
G01X274752Y136068D02*
X279317Y140634D01*
G02X280000Y140351I283J-283D01*
G01Y137500D01*
X275789Y133289D01*
X275675Y133324D01*
G03X275167Y133399I-507J-1677D01*
G01X275154D01*
G02X274752Y133799I-2J400D01*
G01Y136068D01*
G37*
%LPC*%
G75*
G36*
G01X251000Y130802D02*
G02X252250Y130298I0J-1802D01*
G02X253500Y130802I1250J-1298D01*
G02X255302Y129000I0J-1802D01*
G02X254798Y127750I-1802J0D01*
G02Y125250I-1298J-1250D01*
G02Y122750I-1298J-1250D01*
G02Y120250I-1298J-1250D01*
G02X255302Y119000I-1298J-1250D01*
G02X253500Y117198I-1802J0D01*
G02X252250Y117702I0J1802D01*
G02X249750I-1250J1298D01*
G02X248500Y117198I-1250J1298D01*
G02X246698Y119000I0J1802D01*
G02X247202Y120250I1802J0D01*
G02X246698Y121500I1298J1250D01*
G02X248500Y123302I1802J0D01*
G02X248763Y123283I2J-1802D01*
G03X249217Y123737I59J395D01*
G02X249198Y124000I1783J261D01*
G02X249702Y125250I1802J0D01*
G02Y127750I1298J1250D01*
G02X249198Y129000I1298J1250D01*
G02X251000Y130802I1802J0D01*
G37*
G54D27*
X174000Y114500D03*
X236052Y142649D03*
%LPD*%
G75*
G54D10*
G01X259500Y108149D02*
Y103097D01*
X246552Y90149D01*
X219052D01*
G01X262000Y108149D02*
X259500D01*
X-95000Y20000D03*
Y40000D03*
X-101194Y59103D03*
X-97194D03*
X-92194D03*
X-101106Y73003D03*
X-96106D03*
X-91106D03*
X-95000Y110000D03*
Y130000D03*
X-97193Y151395D03*
X-92193D03*
X-92862Y165295D03*
X-97862D03*
X-95000Y185000D03*
Y205000D03*
X-80200Y-5200D03*
X-75400D03*
X-87600Y9200D03*
X-72200Y15800D03*
X-84800Y13400D03*
X-87600Y6200D03*
X-85000Y30000D03*
X-81600Y26400D03*
X-87000Y17500D03*
X-82200Y18000D03*
X-82800Y34000D03*
X-82194Y59103D03*
X-87194D03*
X-78800Y59200D03*
X-75000Y59500D03*
X-86106Y73003D03*
X-81106D03*
X-73000Y88200D03*
X-78000Y73000D03*
X-74600Y75000D03*
X-73000Y79400D03*
Y83600D03*
X-85000Y100000D03*
X-72400Y93000D03*
X-75000Y110000D03*
X-85000Y120000D03*
X-74800Y133400D03*
X-82193Y151395D03*
X-87193D03*
X-77600Y151600D03*
X-73000Y151000D03*
X-87862Y165295D03*
X-82862D03*
X-77800Y165400D03*
X-73000Y165500D03*
X-75000Y185000D03*
X-85000Y195000D03*
X-75000Y205000D03*
Y229500D03*
X-71000Y-5000D03*
X-58000Y-6500D03*
X-56400Y13200D03*
X-62600Y13000D03*
X-71589Y31171D03*
X-65000Y26600D03*
X-59911Y28800D03*
X-59600Y35400D03*
X-57200Y48200D03*
X-69000Y38600D03*
X-65800Y44000D03*
X-58000Y40500D03*
X-61200Y67800D03*
X-64400Y64200D03*
X-61000Y60500D03*
X-58200Y63000D03*
X-60400Y73000D03*
X-70200Y97000D03*
X-67499Y101543D03*
X-63463Y104495D03*
X-58400Y106200D03*
X-55924Y92674D03*
X-59328Y89012D03*
X-65000Y120000D03*
Y140000D03*
X-55000Y130000D03*
X-54601Y141892D03*
X-58931Y144392D03*
X-63261Y146892D03*
X-67591Y149392D03*
X-58884Y160416D03*
X-54554Y157916D03*
X-65000Y175000D03*
X-67902Y164666D03*
X-63225Y162898D03*
X-65000Y195000D03*
X-57500Y232000D03*
X-43000Y-7000D03*
X-38000Y-1500D03*
X-47200Y15600D03*
X-42919Y26387D03*
X-43600Y22800D03*
X-38000Y37600D03*
X-47200Y52400D03*
X-43000Y53000D03*
X-40000Y56000D03*
X-49500Y59300D03*
X-37000Y59000D03*
X-38000Y84000D03*
X-41500Y86000D03*
X-46500D03*
X-38827Y106826D03*
X-43827D03*
X-52600Y106600D03*
X-48827Y106826D03*
X-42500Y93500D03*
X-42577Y89876D03*
X-53927D03*
X-36500Y124000D03*
X-41610Y134392D03*
X-45940Y136892D03*
X-50270Y139392D03*
X-41432Y130768D03*
X-50224Y155415D03*
X-45894Y152915D03*
X-41400Y150400D03*
X-37234Y147915D03*
X-45000Y175000D03*
X-40500Y234500D03*
X-25000Y-10000D03*
X-29000Y-1000D03*
X-23000Y-1200D03*
X-34500Y15000D03*
X-29400Y12000D03*
X-33000Y5000D03*
X-20400Y27600D03*
X-26600Y41000D03*
X-23000Y51500D03*
X-35500Y49000D03*
X-21200Y64000D03*
X-26000Y68000D03*
X-33000Y84000D03*
X-28000Y76500D03*
X-28827Y106826D03*
X-33827D03*
X-21500Y114500D03*
X-26000Y115000D03*
X-29500Y117000D03*
X-32000Y120500D03*
X-19000Y137000D03*
X-24000Y140000D03*
X-29800Y128500D03*
X-31927Y125280D03*
X-32904Y145415D03*
X-22000Y156000D03*
X-31000Y176500D03*
X-18500Y163500D03*
X-30500Y193000D03*
Y188000D03*
X-34500Y182000D03*
X-24000Y214500D03*
X-21000Y237000D03*
X-5800Y-8800D03*
X-17000Y-1000D03*
X-12200Y5200D03*
X-18000Y12000D03*
X-9500Y15000D03*
X-4500Y30500D03*
X-15000Y28000D03*
X-8000Y32000D03*
X-11500Y28000D03*
X-3200Y42600D03*
X-13000Y40000D03*
X-14000Y115000D03*
X-2503Y124821D03*
X-9000Y125500D03*
X-8000Y129000D03*
X-15000Y133500D03*
X-5200Y154800D03*
X-13000Y152500D03*
X-10500Y172500D03*
X-7500D03*
X-15600Y172800D03*
X-11000Y214000D03*
X-5000Y211500D03*
X-17000Y219500D03*
X15000Y3800D03*
X11500Y15000D03*
Y21000D03*
Y18000D03*
Y25500D03*
X15000Y35000D03*
X14600Y32000D03*
X11500Y38500D03*
X9400Y156000D03*
X2000Y170500D03*
X12000Y169000D03*
X16000D03*
X15000Y215000D03*
X1000Y239000D03*
X21500Y4000D03*
X28500D03*
X35000D03*
X33000Y32000D03*
X20600Y155800D03*
X24400D03*
X28000D03*
X34000Y146000D03*
X31500Y155800D03*
X19500Y169000D03*
X23500D03*
X27500D03*
X31500D03*
X35500D03*
X29000Y182500D03*
X37000Y36000D03*
X50000Y135200D03*
X39200Y146000D03*
X50000Y145000D03*
X52200Y159000D03*
X40000Y168500D03*
X42600Y179400D03*
X51000Y201000D03*
X61000Y9000D03*
X64500Y4000D03*
X66000Y21220D03*
X65500Y128500D03*
X63000Y127000D03*
X63500Y177500D03*
X60500Y172000D03*
X67000Y193600D03*
X67150Y183800D03*
X80000Y5000D03*
X88763Y21894D03*
X84823Y27804D03*
X87000Y35000D03*
Y30000D03*
X72500D03*
X79500D03*
X76000D03*
X87000Y40000D03*
X73047Y117500D03*
X77000Y202000D03*
X78500Y215000D03*
X79500Y227000D03*
X79000Y240000D03*
X118000Y-19000D03*
X110000Y15000D03*
X124000Y23500D03*
X116000Y53000D03*
X110500D03*
X113500Y55500D03*
X117500D03*
X123500Y217000D03*
X131000Y-19000D03*
X133000Y15500D03*
X142299Y51252D03*
X129799D03*
X142299Y55252D03*
X129799D03*
X139973Y71939D03*
X136821D03*
X137619Y120788D03*
X142741Y118424D03*
X139589D03*
X128000Y212000D03*
X144000Y-19000D03*
X157500Y-18500D03*
X157000Y19500D03*
X148000Y19465D03*
X152500Y19500D03*
X158000Y105000D03*
X153379Y109000D03*
X149045D03*
X155000Y165000D03*
X160000Y175000D03*
X160500Y161500D03*
Y165500D03*
X146000Y197000D03*
X144500Y210500D03*
X159500Y204000D03*
X145000Y202500D03*
X150500Y206500D03*
X153000Y218000D03*
X150500Y215500D03*
Y220500D03*
X155500D03*
Y215500D03*
X156000Y230000D03*
X176000Y-17500D03*
X170052Y19649D03*
X166000Y105000D03*
X162000D03*
X169547Y101000D03*
X173079Y90450D03*
X169547Y97500D03*
X177552Y97149D03*
X174052D03*
X177413Y90450D03*
X177000Y114500D03*
X176628Y107712D03*
X172628D03*
X174500Y131500D03*
Y127000D03*
X171000D03*
X161711Y143211D03*
X165000Y198500D03*
X174000Y208500D03*
X177000D03*
X163000Y197000D03*
X174000Y228000D03*
X176500D03*
X181000Y-5500D03*
X184500Y14500D03*
X180000Y5000D03*
X184500Y18000D03*
X195500Y19500D03*
X192000Y51000D03*
X196052Y58149D03*
X192000Y55500D03*
X196650Y117000D03*
X184500Y108000D03*
X190000Y159000D03*
X182500Y176000D03*
X181000Y224000D03*
X184000Y223500D03*
X185000Y218500D03*
X185500Y221500D03*
X182563Y220463D03*
X179387D03*
X203000Y51000D03*
X213000Y51500D03*
X208000Y58500D03*
X213000Y55500D03*
X212873Y69174D03*
X207751D03*
X210552Y66149D03*
X198000Y97950D03*
X214552Y90149D03*
X203900Y167900D03*
X224000Y-13500D03*
X220000Y21000D03*
X223000Y51500D03*
X218000Y58500D03*
X223000Y55500D03*
X218389Y69174D03*
X226663Y58536D03*
X226000Y72000D03*
X227000Y87000D03*
X217500Y79500D03*
X231000Y77000D03*
X224000Y84000D03*
X219052Y90149D03*
X232500Y190500D03*
X221500Y214000D03*
X226000D03*
X232000D03*
X231500Y210500D03*
Y208000D03*
Y202000D03*
Y199500D03*
X223500Y239000D03*
X231500D03*
X237500Y19000D03*
X234000Y51500D03*
Y63500D03*
Y59500D03*
Y55500D03*
Y79000D03*
Y87000D03*
X241000D03*
X251000Y79000D03*
Y87000D03*
X245000Y78000D03*
X248000Y75000D03*
X239500Y74500D03*
X237000Y105500D03*
X240000D03*
X243000Y98000D03*
Y102500D03*
Y106500D03*
X233500Y119000D03*
X243000Y110500D03*
Y114500D03*
Y118000D03*
X238500Y120500D03*
Y123500D03*
X242000Y121500D03*
X238500Y133000D03*
Y127000D03*
Y130000D03*
X233500Y148500D03*
Y151000D03*
X237500D03*
Y148500D03*
X241500D03*
Y151000D03*
X237500Y178500D03*
Y175000D03*
Y171500D03*
X241500D03*
Y178500D03*
X234500Y175000D03*
X237500Y166500D03*
X234500Y178500D03*
Y186500D03*
Y182500D03*
X247500Y181500D03*
X237000Y214000D03*
X248000Y221500D03*
X251500Y-11500D03*
X260000Y8000D03*
X260800Y30800D03*
X252500Y30500D03*
X265000Y70000D03*
X258000Y79000D03*
Y87000D03*
X261500D03*
X264000Y78500D03*
X268600Y80400D03*
X264000Y88500D03*
Y97500D03*
Y100500D03*
Y104000D03*
Y91500D03*
Y94500D03*
X259500Y108149D03*
X262000D03*
X265500Y135500D03*
X265000Y128500D03*
X268000Y141000D03*
X265000Y132000D03*
X268000Y149500D03*
X256500Y173500D03*
Y176000D03*
X258500Y175000D03*
X256500Y171000D03*
X258500Y172500D03*
Y170000D03*
X258000Y181500D03*
Y179000D03*
X266500Y205500D03*
X268500Y227500D03*
X260000Y221500D03*
X254000D03*
X253500Y235500D03*
X259500D03*
X270000Y7500D03*
X283000Y30000D03*
X272500Y41000D03*
X285000Y70000D03*
X271500Y83500D03*
X273000Y87000D03*
Y99000D03*
Y102000D03*
Y105000D03*
Y90000D03*
Y93000D03*
Y96000D03*
Y108000D03*
X275667Y120647D03*
Y123147D03*
X275400Y135600D03*
X275167Y131647D03*
Y129147D03*
X273950Y151050D03*
X281167Y153147D03*
X283667D03*
X281167Y155647D03*
X281200Y158200D03*
X270500Y166500D03*
X275500Y205500D03*
X286000Y198500D03*
X273500Y222500D03*
X285500Y231500D03*
X273500Y233500D03*
X300000Y0D03*
X295000Y35000D03*
Y65000D03*
X294100Y56500D03*
X302500Y85500D03*
X300167Y106147D03*
X297667D03*
X295167D03*
X292667D03*
X290167D03*
X300167Y103647D03*
X297667D03*
X295167D03*
X292667D03*
X290167D03*
X300167Y101147D03*
X297667D03*
X295167D03*
X292667D03*
X290167D03*
X300167Y98647D03*
X297667D03*
X295167D03*
X292667D03*
X290167D03*
X301552Y109640D03*
X292000Y155000D03*
Y157600D03*
X293000Y151000D03*
X291500Y185000D03*
Y182000D03*
X292500Y198500D03*
X298500D03*
X297000Y229500D03*
X310000Y40000D03*
X315000Y65000D03*
X317000Y89500D03*
X310667Y150647D03*
X313167D03*
X310667Y153147D03*
X313167D03*
X308000Y205500D03*
X315000D03*
Y214500D03*
X312500Y222500D03*
G54D20*
G01X52200Y159000D02*
X-11000D01*
X-39000Y131000D01*
Y115500D01*
X-41500Y113000D01*
Y99000D01*
X-60210Y80290D01*
X-60501D01*
X-61490Y79301D01*
Y79010D01*
X-69500Y71000D01*
Y46500D01*
X-77000Y39000D01*
Y11000D01*
X-59500Y-6500D01*
X-58000D01*
G01X-11500Y28000D02*
Y33500D01*
X-8500Y36500D01*
X6000D01*
X13000Y29500D01*
X62000D01*
X75500Y16000D01*
G01X174469Y154032D02*
X172001Y156500D01*
X170000D01*
X166500Y153000D01*
Y142500D01*
X168500Y140500D01*
Y124000D01*
X166857Y122357D01*
Y121529D01*
X170279Y118107D01*
Y117279D01*
X169692Y116692D01*
X168864D01*
X165442Y120114D01*
X164614D01*
X163904Y119404D01*
Y118576D01*
X166576Y115904D01*
Y115076D01*
X165989Y114489D01*
X165161D01*
X162489Y117161D01*
X161661D01*
X161074Y116574D01*
Y115746D01*
X163746Y113074D01*
Y112246D01*
X163159Y111659D01*
X162331D01*
X159659Y114331D01*
X158831D01*
X158244Y113744D01*
Y112916D01*
X160916Y110244D01*
Y109416D01*
X160329Y108829D01*
X159501D01*
X156830Y111500D01*
X142909D01*
X137909Y106500D01*
X134000D01*
X130350Y110150D01*
X123041D01*
X121859Y108968D01*
X120673Y108575D01*
G01X148000Y19465D02*
X150535Y22000D01*
X152999D01*
X159500Y28501D01*
Y62123D01*
X150500Y71123D01*
Y79500D01*
X154500Y83500D01*
Y94000D01*
X148000Y100500D01*
X132500D01*
X126002Y106998D01*
X116737D01*
X115949Y107786D01*
Y115666D01*
X116737Y116454D01*
X119093D01*
X120673Y114874D01*
G01X137619Y120788D02*
X134073D01*
X131308Y118023D01*
X120672D01*
G01X142741Y118424D02*
X139589Y115272D01*
X128951D01*
X125799Y112120D01*
X123435D01*
X121465Y110150D01*
X119101D01*
X117525Y108574D01*
X117524D01*
G01X139589Y118424D02*
X137619Y116454D01*
X127769D01*
X124617Y113302D01*
X119101D01*
X117524Y111725D01*
G01X152500Y19500D02*
X162000Y29000D01*
Y73609D01*
X161810Y73799D01*
Y75201D01*
X162000Y75391D01*
Y86000D01*
X160000Y88000D01*
Y93000D01*
X150000Y103000D01*
X132557D01*
X126983Y108574D01*
X126974D01*
G01X170595Y165905D02*
X166405D01*
X165000Y164500D01*
Y163064D01*
X165586Y162478D01*
X167414D01*
X168000Y161892D01*
Y161064D01*
X167414Y160478D01*
X165586D01*
X165000Y159892D01*
Y140740D01*
X164414Y140154D01*
X161586D01*
X161000Y139568D01*
Y138740D01*
X161586Y138154D01*
X164414D01*
X165000Y137568D01*
Y130440D01*
X164027Y129467D01*
X157467D01*
X155486Y127486D01*
Y125658D01*
X160408Y120736D01*
Y119908D01*
X159821Y119321D01*
X158993D01*
X154071Y124243D01*
X153243D01*
X152656Y123656D01*
Y122828D01*
X155078Y120406D01*
Y119578D01*
X154491Y118991D01*
X153663D01*
X151241Y121413D01*
X150413D01*
X149826Y120826D01*
Y119998D01*
X153430Y116394D01*
Y115566D01*
X152843Y114979D01*
X152015D01*
X148411Y118583D01*
X147583D01*
X146996Y117996D01*
Y117168D01*
X149418Y114746D01*
Y113918D01*
X148831Y113331D01*
X148003D01*
X145581Y115753D01*
X144753D01*
X141000Y112000D01*
X136501D01*
X135318Y110817D01*
Y108457D01*
G01X150000Y0D02*
Y-3500D01*
X152000Y-5500D01*
X162500D01*
X165500Y-2500D01*
Y49501D01*
X168552Y52553D01*
Y77619D01*
X171518Y80585D01*
Y86101D01*
X168552Y89067D01*
Y94149D01*
X169547Y95144D01*
Y97500D01*
G01X174052Y97149D02*
Y95649D01*
X170052Y91649D01*
Y89537D01*
X173094Y86495D01*
Y79687D01*
X170052Y76645D01*
Y19649D01*
G01X177413Y90450D02*
X181747Y86116D01*
Y82570D01*
X177807Y78630D01*
Y28894D01*
X192552Y14149D01*
X205351D01*
X210000Y9500D01*
Y-500D01*
X212500Y-3000D01*
X249500D01*
X255000Y2500D01*
G01X173079Y90450D02*
X177019Y94390D01*
X181747D01*
X190000Y102643D01*
Y150437D01*
G01X169547Y97500D02*
X173927Y101880D01*
X178198D01*
X182500Y106182D01*
Y127000D01*
X180181Y129319D01*
Y130147D01*
X182103Y132069D01*
Y132897D01*
X181516Y133484D01*
X180688D01*
X178766Y131562D01*
X177938D01*
X177228Y132272D01*
Y133100D01*
X178900Y134772D01*
Y135600D01*
X178313Y136187D01*
X177485D01*
X175813Y134515D01*
X174985D01*
X174398Y135102D01*
Y135930D01*
X176070Y137602D01*
Y138430D01*
X175483Y139017D01*
X174655D01*
X172983Y137345D01*
X172155D01*
X171568Y137932D01*
Y138760D01*
X173240Y140432D01*
Y141260D01*
X172653Y141847D01*
X169653D01*
X168000Y143500D01*
Y151500D01*
X170595Y154095D01*
G01X177552Y97149D02*
X186500Y106097D01*
Y138000D01*
X179000Y145500D01*
Y162500D01*
X182405Y165905D01*
G01X170595Y161968D02*
X173031D01*
X177000Y157999D01*
Y140999D01*
X177922Y140077D01*
X178750D01*
X179673Y141000D01*
X180501D01*
X181088Y140413D01*
Y139585D01*
X180165Y138662D01*
Y137834D01*
X181067Y136932D01*
X181895D01*
X182566Y137604D01*
X183394D01*
X183981Y137017D01*
Y136189D01*
X183310Y135517D01*
Y134689D01*
X184500Y133499D01*
Y108000D01*
G01X178468Y165905D02*
X179788Y167225D01*
Y173201D01*
X179000Y173989D01*
X177425D01*
X176586Y173150D01*
Y167586D01*
X176000Y167000D01*
X175172D01*
X174586Y167586D01*
Y174096D01*
X174000Y174682D01*
X173172D01*
X172586Y174096D01*
Y168586D01*
X172000Y168000D01*
X171172D01*
X170586Y168586D01*
Y174096D01*
X170000Y174682D01*
X169172D01*
X168586Y174096D01*
Y168586D01*
X168000Y168000D01*
X167172D01*
X166586Y168586D01*
Y172914D01*
X166000Y173500D01*
X164328D01*
X163500Y172672D01*
Y145000D01*
X161711Y143211D01*
G01X256600Y165600D02*
X256500Y165500D01*
X240903D01*
X229552Y154149D01*
Y127649D01*
X207052Y105149D01*
Y85149D01*
X205052Y83149D01*
Y59149D01*
X198552Y52649D01*
Y47649D01*
X192552Y41649D01*
Y22448D01*
X195500Y19500D01*
G01X293000Y151000D02*
X292851Y151149D01*
X286648D01*
X272500Y137001D01*
Y121251D01*
X265398Y114149D01*
X258930D01*
X255052Y110271D01*
Y104271D01*
X244930Y94149D01*
X213552D01*
X211552Y92149D01*
Y88149D01*
X212552Y87149D01*
Y73149D01*
X210552Y71149D01*
Y66149D01*
G01X235000Y2500D02*
X230000Y7500D01*
X222000D01*
X220000Y9500D01*
Y21000D01*
G01X225000Y12500D02*
X231500Y19000D01*
X237500D01*
G01X301552Y109640D02*
X298543Y112649D01*
X259552D01*
X256552Y109649D01*
Y103649D01*
X245552Y92649D01*
X217052D01*
X214552Y90149D01*
G54D11*
X-103394Y48803D03*
Y44803D03*
Y52803D03*
X-95394D03*
X-91394D03*
X-99394D03*
X-95394Y44803D03*
X-91394D03*
X-99394D03*
Y48803D03*
X-91394D03*
X-95394D03*
X-103394Y83303D03*
Y79303D03*
Y87303D03*
X-95394D03*
X-91394D03*
X-99394D03*
X-95394Y79303D03*
X-91394D03*
X-99394D03*
Y83303D03*
X-91394D03*
X-95394D03*
X-103394Y141303D03*
Y137303D03*
X-95394D03*
X-91394D03*
X-99394D03*
Y141303D03*
X-91394D03*
X-95394D03*
X-103394Y145303D03*
X-95394D03*
X-91394D03*
X-99394D03*
X-103394Y175803D03*
Y171803D03*
X-95394D03*
X-91394D03*
X-99394D03*
Y175803D03*
X-91394D03*
X-95394D03*
X-103394Y179803D03*
X-95394D03*
X-91394D03*
X-99394D03*
X-87394Y48803D03*
Y44803D03*
Y52803D03*
Y83303D03*
Y79303D03*
Y87303D03*
Y141303D03*
Y137303D03*
Y145303D03*
Y175803D03*
Y171803D03*
Y179803D03*
X-20000Y44400D03*
X-2107Y86244D03*
X-2098Y89402D03*
Y92552D03*
Y95702D03*
X-2103Y98846D03*
X-2098Y105149D03*
X-5249Y102001D03*
X-8398Y111449D03*
X-5247Y114598D03*
X-2098Y120897D03*
Y108298D03*
X-6500Y189500D03*
X-9000D03*
X-11500D03*
Y192000D03*
X-9000D03*
X-6500D03*
Y194500D03*
X-9000D03*
X-11500D03*
X1038Y83113D03*
X1028Y86229D03*
X1052Y89402D03*
X1050Y95702D03*
Y98852D03*
X4204Y98847D03*
X7356Y98856D03*
X10501Y98852D03*
X10504Y89405D03*
X16799Y105150D03*
X10502Y105148D03*
X16798Y111448D03*
X7351Y108298D03*
X13648Y108300D03*
X10524Y108275D03*
X10499Y111450D03*
X7351Y111448D03*
X1052Y108298D03*
X1051Y111449D03*
X19949D03*
X51800Y25700D03*
Y19300D03*
Y22500D03*
X55000Y25700D03*
Y22500D03*
X58200D03*
Y25700D03*
X55000Y19300D03*
X58200D03*
X67083Y180500D03*
X78146Y78255D03*
X84450D03*
X81298D03*
X79331Y103865D03*
X89176Y89676D03*
X89178Y95977D03*
Y92828D03*
X85972Y121228D03*
X89178Y121172D03*
X76556Y113698D03*
X89179Y111723D03*
X89174Y108578D03*
X79328Y141261D03*
X89178Y141000D03*
X83268Y141261D03*
X89178Y136927D03*
X81645Y173630D03*
X84794Y176785D03*
X84797Y186235D03*
X87954Y192523D03*
X87937Y189390D03*
X80072Y195674D03*
X101774Y86526D03*
Y83377D03*
X98624Y83376D03*
X104938Y89664D03*
X101776Y95977D03*
X95477Y92828D03*
X92328Y99127D03*
Y95977D03*
X95477Y105424D03*
X92328Y121172D03*
Y118023D03*
Y114873D03*
X98627Y124322D03*
X95477Y111724D03*
Y108574D03*
X101770Y134580D03*
X100533Y176782D03*
X91103Y189373D03*
X94242Y192534D03*
X91103Y192523D03*
X97402D03*
X103702Y195672D03*
X91103D03*
X108078Y86524D03*
X111230Y86522D03*
X108075Y89677D03*
X111224Y92828D03*
X108074D03*
X111224Y95977D03*
X108074D03*
X117523D03*
Y92828D03*
Y89678D03*
X114373Y92828D03*
X120669Y124319D03*
X117527Y124326D03*
X114370Y124319D03*
X120673Y108575D03*
Y114874D03*
X120672Y118023D03*
X117524Y108574D03*
Y111725D03*
X117138Y137338D03*
X108074Y135745D03*
X117527Y130623D03*
Y127471D03*
X111226D03*
X108076D03*
X109652Y142838D03*
Y145596D03*
X140753Y92808D03*
Y97541D03*
X135318Y108457D03*
X126974Y108574D03*
X135220Y173603D03*
X135198Y176777D03*
X128899Y164174D03*
X132047Y176776D03*
X128897Y176775D03*
X125748Y186224D03*
X128901Y189375D03*
X135198Y192525D03*
X135193Y186228D03*
X128899Y183069D03*
X128900Y186222D03*
X144336Y125929D03*
X174469Y154032D03*
X170595Y154095D03*
X178468Y165905D03*
X170595Y161968D03*
Y165905D03*
X189200Y81800D03*
X194000D03*
Y72200D03*
X189200Y77000D03*
X191600Y79400D03*
X196400Y74600D03*
X194000Y77000D03*
X189200Y72200D03*
X191600Y74600D03*
X196400Y79400D03*
X182469Y157968D03*
X190000Y150437D03*
X182405Y165905D03*
X198800Y81800D03*
Y72200D03*
Y77000D03*
X211800Y218800D03*
X209200Y221800D03*
X201000Y237200D03*
X242075Y52701D03*
X246075D03*
X250075D03*
X242075Y56701D03*
X246075D03*
X250075D03*
Y60701D03*
X242075D03*
X246075D03*
X250200Y154800D03*
Y145200D03*
Y150000D03*
X256450Y135950D03*
X255000Y154800D03*
X259800D03*
X257400Y152400D03*
X252600D03*
X255000Y145200D03*
X259800D03*
X257400Y147600D03*
X252600D03*
X259800Y150000D03*
X255000D03*
X254000Y162696D03*
X256600Y165600D03*
G54D21*
G01X117523Y95977D02*
X119088Y97542D01*
X124617D01*
X125419Y96740D01*
Y86918D01*
X126207Y86130D01*
Y79826D01*
X124237Y77856D01*
Y48238D01*
X120648Y44649D01*
X107052D01*
X105903Y43500D01*
X60999D01*
X58999Y41500D01*
X31000D01*
X28500Y44000D01*
X3501D01*
X-21000Y68501D01*
Y96417D01*
X-10693Y106724D01*
X-522D01*
X1052Y108298D01*
G01X117523Y92828D02*
X119099Y94404D01*
X121479D01*
X122267Y93616D01*
Y87678D01*
X125025Y84920D01*
Y80614D01*
X123055Y78644D01*
Y49556D01*
X119648Y46149D01*
X105552D01*
X104403Y45000D01*
X59999D01*
X57499Y42500D01*
X40500D01*
X38000Y45000D01*
X4501D01*
X-20000Y69501D01*
Y95745D01*
X-12177Y103568D01*
X-3679D01*
X-2098Y105149D01*
G01Y89402D02*
X-3658Y90962D01*
X-6039D01*
X-6832Y90169D01*
Y88895D01*
X-7790Y87937D01*
X-9064D01*
X-11000Y86001D01*
Y80500D01*
X-9000Y78500D01*
Y77000D01*
X-10000Y76000D01*
Y74499D01*
X6999Y57500D01*
X15582D01*
X16153Y56929D01*
Y54571D01*
X16724Y54000D01*
X17532D01*
X18103Y54571D01*
Y56929D01*
X18674Y57500D01*
X19482D01*
X20053Y56929D01*
Y54571D01*
X20624Y54000D01*
X21432D01*
X22003Y54571D01*
Y56929D01*
X22574Y57500D01*
X23999D01*
X24499Y57000D01*
Y54501D01*
X26000Y53000D01*
X97499D01*
X112806Y68307D01*
Y84946D01*
X111230Y86522D01*
G01X-2098Y92552D02*
X-3660Y94114D01*
X-9237D01*
X-12000Y91351D01*
Y74499D01*
X10499Y52000D01*
X99000D01*
X115958Y68958D01*
Y83378D01*
X112809Y86527D01*
Y90453D01*
X112010Y91252D01*
X111510D01*
X111224Y91538D01*
Y92828D01*
G01X1052Y89402D02*
X1051D01*
X-541Y87810D01*
X-6044D01*
X-7000Y86854D01*
Y74499D01*
X8499Y59000D01*
X25449D01*
X26020Y58429D01*
Y55571D01*
X26591Y55000D01*
X27399D01*
X27970Y55571D01*
Y58429D01*
X28541Y59000D01*
X29349D01*
X29920Y58429D01*
Y55571D01*
X30491Y55000D01*
X31299D01*
X31870Y55571D01*
Y58429D01*
X32441Y59000D01*
X33500D01*
X34000Y58500D01*
Y55500D01*
X34500Y55000D01*
X38000D01*
X40500Y57500D01*
X48499D01*
X49334Y56665D01*
X61334D01*
X63499Y54500D01*
X96500D01*
X109657Y67657D01*
Y91245D01*
X108074Y92828D01*
G01X-2098Y95702D02*
X-3896Y97500D01*
X-7499D01*
X-13000Y91999D01*
Y73499D01*
X9499Y51000D01*
X100499D01*
X119101Y69602D01*
Y83531D01*
X118078Y84554D01*
X117145D01*
X115961Y85738D01*
Y90466D01*
X115175Y91252D01*
X113587D01*
X112799Y92040D01*
Y94402D01*
X111224Y95977D01*
G01X117523Y89678D02*
X117919Y88480D01*
X120691Y85708D01*
Y51788D01*
X118052Y49149D01*
X103552D01*
X102903Y48500D01*
X5000D01*
X-17500Y71000D01*
Y94901D01*
X-16874Y95527D01*
X-16068D01*
X-15174Y94634D01*
X-14368D01*
X-13795Y95207D01*
Y96013D01*
X-14689Y96906D01*
Y97712D01*
X-11985Y100416D01*
X-136D01*
X2626Y103178D01*
Y109874D01*
X1051Y111449D01*
G01X114373Y92828D02*
X115395D01*
X116985Y91238D01*
X118707D01*
X119101Y90844D01*
Y88874D01*
X123843Y84132D01*
Y81402D01*
X121873Y79432D01*
Y50374D01*
X119148Y47649D01*
X104552D01*
X103403Y46500D01*
X4999D01*
X-18500Y69999D01*
Y95501D01*
X-12000Y102001D01*
X-5249D01*
G01X108078Y86524D02*
Y84953D01*
X108477Y84554D01*
Y68977D01*
X95584Y56084D01*
X63415D01*
X61884Y57615D01*
X49885D01*
X48500Y59000D01*
X40500D01*
X39000Y60500D01*
X38042D01*
X37500Y59958D01*
Y57100D01*
X36900Y56500D01*
X36092D01*
X35521Y57071D01*
Y59929D01*
X34950Y60500D01*
X33166D01*
X32595Y61071D01*
Y62429D01*
X32024Y63000D01*
X31216D01*
X30645Y62429D01*
Y61071D01*
X30074Y60500D01*
X29266D01*
X28695Y61071D01*
Y62429D01*
X28124Y63000D01*
X27316D01*
X26745Y62429D01*
Y61071D01*
X26174Y60500D01*
X25366D01*
X24795Y61071D01*
Y62429D01*
X24224Y63000D01*
X23416D01*
X22845Y62429D01*
Y61071D01*
X22274Y60500D01*
X21466D01*
X20895Y61071D01*
Y62429D01*
X20324Y63000D01*
X19516D01*
X18945Y62429D01*
Y61071D01*
X18374Y60500D01*
X17566D01*
X16995Y61071D01*
Y62429D01*
X16424Y63000D01*
X15616D01*
X15045Y62429D01*
Y61071D01*
X14474Y60500D01*
X13666D01*
X13095Y61071D01*
Y62429D01*
X12524Y63000D01*
X11716D01*
X11145Y62429D01*
Y61071D01*
X10574Y60500D01*
X9501D01*
X-2000Y72001D01*
Y73843D01*
X-2571Y74414D01*
X-4429D01*
X-5000Y74985D01*
Y75793D01*
X-4429Y76364D01*
X-2571D01*
X-2000Y76935D01*
Y78000D01*
X-2806Y78806D01*
X-4929D01*
X-5500Y79377D01*
Y80185D01*
X-4929Y80756D01*
X-4244D01*
X-3680Y81320D01*
Y84671D01*
X-2107Y86244D01*
G01X101774Y83377D02*
Y69774D01*
X92500Y60500D01*
X57500D01*
X56965Y61035D01*
X53965D01*
X53500Y61500D01*
Y64000D01*
X53000Y64500D01*
Y65402D01*
X55045Y67447D01*
Y68255D01*
X54474Y68826D01*
X53666D01*
X51824Y66984D01*
X51016D01*
X50445Y67555D01*
Y68363D01*
X51487Y69405D01*
Y70113D01*
X50865Y70735D01*
X50059D01*
X49066Y69742D01*
X48258D01*
X47687Y70313D01*
Y70687D01*
X49500Y72500D01*
Y73500D01*
X48500Y74500D01*
X47701D01*
X44401Y71200D01*
X43201D01*
X41222Y73179D01*
Y74429D01*
X40651Y75000D01*
X39843D01*
X39500Y74657D01*
Y73299D01*
X38498Y72297D01*
X36304D01*
X35735Y72866D01*
Y74065D01*
X35171Y74629D01*
X34400D01*
X34000Y74229D01*
Y73000D01*
X33600Y72600D01*
X32801D01*
X32500Y72901D01*
Y74500D01*
X32000Y75000D01*
X30500D01*
X30000Y74500D01*
Y72400D01*
X29500Y71900D01*
X27501D01*
X27000Y72401D01*
Y74499D01*
X26499Y75000D01*
X25000D01*
X24500Y74500D01*
Y72900D01*
X23800Y72200D01*
X22400D01*
X21807Y72793D01*
Y74692D01*
X21414Y75085D01*
X20232D01*
X19837Y74690D01*
Y72836D01*
X19501Y72500D01*
X11500D01*
X11000Y73000D01*
X8600D01*
X8000Y72400D01*
X5101D01*
X2517Y74984D01*
Y90009D01*
X2500Y90026D01*
Y90555D01*
X-528Y93583D01*
Y97271D01*
X-2103Y98846D01*
G01X79331Y103865D02*
X80907Y105441D01*
Y108093D01*
X79000Y110000D01*
X75000D01*
X53500Y131500D01*
X15500D01*
X9033Y125033D01*
X5533D01*
X-524Y118976D01*
Y109872D01*
X-2098Y108298D01*
G01X1038Y83113D02*
Y74137D01*
X6675Y68500D01*
X10951D01*
X11522Y69071D01*
Y70429D01*
X12093Y71000D01*
X12901D01*
X13472Y70429D01*
Y69071D01*
X14043Y68500D01*
X14999D01*
X15422Y68923D01*
Y70429D01*
X15993Y71000D01*
X16801D01*
X17372Y70429D01*
Y69071D01*
X17943Y68500D01*
X18751D01*
X19322Y69071D01*
Y70429D01*
X19893Y71000D01*
X20701D01*
X21272Y70429D01*
Y69071D01*
X21843Y68500D01*
X22651D01*
X23222Y69071D01*
Y70429D01*
X23793Y71000D01*
X24601D01*
X25172Y70429D01*
Y69071D01*
X25743Y68500D01*
X26551D01*
X27122Y69071D01*
Y70121D01*
X27551Y70550D01*
X28651D01*
X29072Y70129D01*
Y69071D01*
X29643Y68500D01*
X30451D01*
X31022Y69071D01*
Y70429D01*
X31593Y71000D01*
X32401D01*
X32972Y70429D01*
Y69071D01*
X33378Y68665D01*
X34516D01*
X34922Y69071D01*
Y70429D01*
X35493Y71000D01*
X36301D01*
X36872Y70429D01*
Y69071D01*
X37443Y68500D01*
X38393D01*
X38964Y69071D01*
Y70429D01*
X39535Y71000D01*
X40999D01*
X41500Y70499D01*
Y68000D01*
X42050Y67450D01*
X42951D01*
X45126Y69625D01*
X45875D01*
X46448Y69052D01*
Y68246D01*
X44647Y66446D01*
Y65640D01*
X45220Y65067D01*
X46026D01*
X47827Y66867D01*
X48633D01*
X49206Y66294D01*
Y65488D01*
X47315Y63597D01*
Y62830D01*
X47945Y62200D01*
X48676D01*
X50585Y64109D01*
X51391D01*
X52200Y63300D01*
Y62300D01*
X51000Y61100D01*
Y60500D01*
X51985Y59515D01*
X62984D01*
X63499Y59000D01*
X93500D01*
X103353Y68853D01*
Y84956D01*
X104938Y86541D01*
Y89664D01*
G01X1028Y86229D02*
X-500Y84701D01*
Y72999D01*
X7999Y64500D01*
X8949D01*
X9520Y65071D01*
Y66429D01*
X10091Y67000D01*
X10899D01*
X11470Y66429D01*
Y65071D01*
X12041Y64500D01*
X12849D01*
X13420Y65071D01*
Y66429D01*
X13991Y67000D01*
X14799D01*
X15370Y66429D01*
Y65071D01*
X15941Y64500D01*
X16749D01*
X17320Y65071D01*
Y66248D01*
X18072Y67000D01*
X18699D01*
X19270Y66429D01*
Y65071D01*
X19841Y64500D01*
X20649D01*
X21220Y65071D01*
Y66429D01*
X21791Y67000D01*
X22599D01*
X23170Y66429D01*
Y65071D01*
X23741Y64500D01*
X24549D01*
X25120Y65071D01*
Y66429D01*
X25691Y67000D01*
X26499D01*
X27070Y66429D01*
Y65071D01*
X27641Y64500D01*
X28449D01*
X29020Y65071D01*
Y66429D01*
X29591Y67000D01*
X30399D01*
X30970Y66429D01*
Y65071D01*
X31541Y64500D01*
X33545D01*
X34116Y63929D01*
Y62571D01*
X34687Y62000D01*
X35400D01*
X36100Y62700D01*
Y65500D01*
X36800Y66200D01*
X38000D01*
X38600Y65600D01*
Y62587D01*
X39187Y62000D01*
X39995D01*
X40600Y62605D01*
Y64999D01*
X41401Y65800D01*
X42401D01*
X43200Y65001D01*
Y62000D01*
X44800Y60400D01*
X49199D01*
X51034Y58565D01*
X62434D01*
X63499Y57500D01*
X94500D01*
X104931Y67931D01*
Y84554D01*
X106113Y85736D01*
Y87715D01*
X108075Y89677D01*
G01X101774Y86526D02*
X101771D01*
X100201Y84956D01*
Y70700D01*
X91501Y62000D01*
X63500D01*
X62168Y63332D01*
X61360D01*
X60168Y62140D01*
X59360D01*
X58789Y62711D01*
Y63519D01*
X59981Y64711D01*
Y65519D01*
X59410Y66090D01*
X58602D01*
X56910Y64398D01*
X56102D01*
X55531Y64969D01*
Y65777D01*
X57223Y67469D01*
Y68277D01*
X53065Y72435D01*
Y73007D01*
X52207Y73865D01*
X51635D01*
X49000Y76500D01*
X45264D01*
X44693Y75929D01*
Y74571D01*
X44122Y74000D01*
X43314D01*
X42743Y74571D01*
Y75929D01*
X42172Y76500D01*
X35142D01*
X34571Y77071D01*
Y78929D01*
X34000Y79500D01*
X33192D01*
X32621Y78929D01*
Y77071D01*
X32050Y76500D01*
X31242D01*
X30671Y77071D01*
Y78929D01*
X30100Y79500D01*
X29292D01*
X28721Y78929D01*
Y77071D01*
X28150Y76500D01*
X27342D01*
X26771Y77071D01*
Y78929D01*
X26200Y79500D01*
X25392D01*
X24821Y78929D01*
Y77071D01*
X24250Y76500D01*
X23442D01*
X22871Y77071D01*
Y78929D01*
X22300Y79500D01*
X21492D01*
X20921Y78929D01*
Y77071D01*
X20350Y76500D01*
X19542D01*
X18971Y77071D01*
Y78929D01*
X18400Y79500D01*
X17592D01*
X17021Y78929D01*
Y76693D01*
X14663Y74335D01*
X9393D01*
X8535Y75193D01*
Y79100D01*
X8135Y79500D01*
X7327D01*
X6756Y78929D01*
Y75071D01*
X6185Y74500D01*
X5000D01*
X3500Y76000D01*
Y91236D01*
X1050Y93686D01*
Y95702D01*
G01Y98852D02*
X2631Y97271D01*
Y94079D01*
X4601Y92109D01*
Y81898D01*
X5499Y81000D01*
X10000D01*
X11000Y82000D01*
X12001D01*
X13052Y80949D01*
Y76571D01*
X13623Y76000D01*
X14431D01*
X15002Y76571D01*
Y80429D01*
X15573Y81000D01*
X30823D01*
X31394Y81571D01*
Y88719D01*
X31965Y89290D01*
X32773D01*
X33344Y88719D01*
Y81571D01*
X33915Y81000D01*
X35521D01*
X36092Y80429D01*
Y78571D01*
X36663Y78000D01*
X37471D01*
X38042Y78571D01*
Y80035D01*
X38613Y80606D01*
X39421D01*
X39992Y80035D01*
Y78571D01*
X40563Y78000D01*
X41399D01*
X42200Y78801D01*
Y83800D01*
X42800Y84400D01*
X43699D01*
X44100Y83999D01*
Y78500D01*
X44600Y78000D01*
X45599D01*
X46100Y78501D01*
Y84000D01*
X46500Y84400D01*
X47528D01*
X47988Y83940D01*
Y78699D01*
X48687Y78000D01*
X50000D01*
X61135Y66865D01*
Y65993D01*
X61993Y65135D01*
X62865D01*
X64500Y63500D01*
X90499D01*
X98624Y71625D01*
Y83376D01*
G01X4204Y98847D02*
Y93892D01*
X5783Y92313D01*
Y88272D01*
X9387Y84668D01*
X27034D01*
X27825Y85459D01*
Y87820D01*
X30977Y90972D01*
X34294D01*
X34865Y90401D01*
Y83071D01*
X35436Y82500D01*
X36244D01*
X36815Y83071D01*
Y90401D01*
X37386Y90972D01*
X38194D01*
X38765Y90401D01*
Y86571D01*
X39336Y86000D01*
X40144D01*
X40715Y86571D01*
Y90401D01*
X41286Y90972D01*
X42094D01*
X42665Y90401D01*
Y86571D01*
X43236Y86000D01*
X44044D01*
X44615Y86571D01*
Y90401D01*
X45186Y90972D01*
X46028D01*
X46500Y90500D01*
Y87500D01*
X49500Y84500D01*
Y80690D01*
X56535Y73655D01*
Y73065D01*
X61535Y68065D01*
X63207D01*
X64065Y67207D01*
Y66125D01*
X65190Y65000D01*
X88999D01*
X95500Y71501D01*
Y86155D01*
X97450Y88105D01*
X102572D01*
X103355Y88888D01*
Y90511D01*
X104451Y91607D01*
Y92354D01*
X108074Y95977D01*
G01X101776D02*
X103024D01*
X103500Y95501D01*
Y92000D01*
X102757Y91257D01*
X97450D01*
X96657Y90464D01*
Y89282D01*
X94000Y86625D01*
Y72500D01*
X90000Y68500D01*
X85917D01*
X85346Y67929D01*
Y67071D01*
X84775Y66500D01*
X83967D01*
X83396Y67071D01*
Y67929D01*
X82825Y68500D01*
X82017D01*
X81446Y67929D01*
Y67071D01*
X80875Y66500D01*
X80067D01*
X79496Y67071D01*
Y67929D01*
X78925Y68500D01*
X76075D01*
X75504Y67929D01*
Y67071D01*
X74933Y66500D01*
X74125D01*
X73554Y67071D01*
Y67929D01*
X72983Y68500D01*
X71155D01*
X70584Y69071D01*
Y70429D01*
X70013Y71000D01*
X69205D01*
X68634Y70429D01*
Y69071D01*
X68063Y68500D01*
X64716D01*
X62533Y70683D01*
Y71572D01*
X63328Y72367D01*
Y73172D01*
X62755Y73745D01*
X61948D01*
X61003Y72800D01*
X60199D01*
X59600Y73399D01*
Y74155D01*
X60570Y75125D01*
Y75930D01*
X59997Y76503D01*
X59191D01*
X58152Y75465D01*
X57033D01*
X56617Y75881D01*
Y76688D01*
X57812Y77882D01*
Y78688D01*
X57239Y79261D01*
X56433D01*
X55238Y78067D01*
X54432D01*
X53859Y78640D01*
Y79446D01*
X55054Y80640D01*
Y81446D01*
X54481Y82019D01*
X53675D01*
X52480Y80825D01*
X51674D01*
X51000Y81499D01*
Y85137D01*
X47919Y88218D01*
Y91582D01*
X47000Y92501D01*
X46999Y92500D01*
X43000D01*
X42500Y93000D01*
Y95000D01*
X41800Y95700D01*
X40814D01*
X40243Y95129D01*
Y93071D01*
X39672Y92500D01*
X38864D01*
X38293Y93071D01*
Y93708D01*
X37001Y95000D01*
X35499D01*
X33499Y93000D01*
X32045D01*
X30921Y94124D01*
X28613D01*
X27825Y93336D01*
Y91764D01*
X27037Y90976D01*
X25461D01*
X24673Y91764D01*
Y93340D01*
X23889Y94124D01*
X22309D01*
X21521Y93336D01*
Y88612D01*
X20733Y87824D01*
X19157D01*
X18369Y88612D01*
Y93340D01*
X17585Y94124D01*
X16015D01*
X15227Y93336D01*
Y88608D01*
X14439Y87820D01*
X9679D01*
X9000Y88499D01*
Y97212D01*
X7356Y98856D01*
G01X89176Y89676D02*
Y77692D01*
X90865Y76003D01*
Y73245D01*
X88896Y71276D01*
X74225D01*
X72161Y73340D01*
Y74146D01*
X73365Y75351D01*
Y76157D01*
X72792Y76730D01*
X71986D01*
X70782Y75525D01*
X69976D01*
X69403Y76098D01*
Y76904D01*
X70607Y78109D01*
Y78915D01*
X70034Y79488D01*
X69228D01*
X68024Y78283D01*
X67218D01*
X66645Y78856D01*
Y79662D01*
X69425Y82444D01*
Y83249D01*
X68852Y83822D01*
X68045D01*
X65625Y81400D01*
X64672D01*
X63500Y82572D01*
Y90400D01*
X60465Y93435D01*
Y94107D01*
X59607Y94965D01*
X58935D01*
X57191Y96709D01*
X56383D01*
X54741Y95067D01*
X53933D01*
X53362Y95638D01*
Y96446D01*
X55004Y98088D01*
Y98896D01*
X54433Y99467D01*
X53625D01*
X51983Y97825D01*
X51175D01*
X49220Y99780D01*
Y100865D01*
X49791Y101436D01*
X53399D01*
X53970Y102007D01*
Y102815D01*
X53399Y103386D01*
X49791D01*
X49220Y103957D01*
Y104765D01*
X49791Y105336D01*
X51429D01*
X52000Y105907D01*
Y106715D01*
X51429Y107286D01*
X47841D01*
X47270Y106715D01*
Y103071D01*
X46699Y102500D01*
X45891D01*
X45320Y103071D01*
Y108307D01*
X44749Y108878D01*
X43941D01*
X43370Y108307D01*
Y107227D01*
X43208Y107065D01*
X41992D01*
X41420Y107637D01*
Y108307D01*
X40849Y108878D01*
X40041D01*
X39470Y108307D01*
Y103071D01*
X38899Y102500D01*
X38091D01*
X37520Y103071D01*
Y106519D01*
X36949Y107090D01*
X32929D01*
X32166Y106327D01*
Y105377D01*
X32737Y104806D01*
X35141D01*
X35712Y104235D01*
Y103427D01*
X35141Y102856D01*
X32737D01*
X32166Y102285D01*
Y101203D01*
X31395Y100432D01*
X30650D01*
X29582Y101500D01*
X28626D01*
X27558Y100432D01*
X26750D01*
X26179Y101003D01*
Y102603D01*
X25608Y103174D01*
X24800D01*
X24229Y102603D01*
Y101003D01*
X23658Y100432D01*
X22850D01*
X22279Y101003D01*
Y102603D01*
X21708Y103174D01*
X20900D01*
X20329Y102603D01*
Y101003D01*
X19758Y100432D01*
X18950D01*
X18379Y101003D01*
Y102603D01*
X17808Y103174D01*
X17000D01*
X16429Y102603D01*
Y101003D01*
X15858Y100432D01*
X12081D01*
X10501Y98852D01*
G01X81298Y78255D02*
X79427Y76384D01*
X77248D01*
X76176Y77456D01*
Y81396D01*
X70266Y87306D01*
Y91246D01*
X58500Y103012D01*
Y109500D01*
X53500Y114500D01*
X26500D01*
X25074Y113074D01*
Y110660D01*
X24286Y109872D01*
X19174D01*
X12872Y103570D01*
X9719D01*
X8932Y104357D01*
Y106717D01*
X7351Y108298D01*
G01X95477Y92828D02*
Y90072D01*
X92500Y87095D01*
Y72911D01*
X89589Y70000D01*
X73499D01*
X67990Y75509D01*
X67182D01*
X65491Y73818D01*
X64683D01*
X64112Y74389D01*
Y75197D01*
X65803Y76888D01*
Y77696D01*
X64165Y79334D01*
X59167D01*
X58596Y79905D01*
Y80713D01*
X60800Y82917D01*
Y83699D01*
X60299Y84200D01*
X59325D01*
X57217Y82092D01*
X56409D01*
X55838Y82663D01*
Y83471D01*
X59529Y87162D01*
Y87970D01*
X58958Y88541D01*
X58150D01*
X53959Y84350D01*
X53151D01*
X52580Y84921D01*
Y85729D01*
X58271Y91420D01*
Y92157D01*
X57535Y92893D01*
Y92964D01*
X57526Y92973D01*
X56718D01*
X51330Y87585D01*
X50522D01*
X49951Y88156D01*
Y88964D01*
X53000Y92013D01*
Y93501D01*
X52047Y94454D01*
X51242D01*
X49797Y93009D01*
X48991D01*
X48418Y93582D01*
Y94389D01*
X49862Y95833D01*
Y96639D01*
X49289Y97212D01*
X48483D01*
X46040Y94767D01*
X45233D01*
X44660Y95340D01*
Y96145D01*
X47104Y98591D01*
Y99897D01*
X46001Y101000D01*
X43993D01*
X43422Y100429D01*
Y97847D01*
X42851Y97276D01*
X41901D01*
X41330Y97847D01*
Y100429D01*
X40759Y101000D01*
X39951D01*
X39380Y100429D01*
Y99180D01*
X38765Y98565D01*
X38034D01*
X37430Y99169D01*
Y100429D01*
X36859Y101000D01*
X36051D01*
X35480Y100429D01*
Y97347D01*
X34909Y96776D01*
X34101D01*
X33530Y97347D01*
Y98429D01*
X32959Y99000D01*
X32151D01*
X31580Y98429D01*
Y98079D01*
X30777Y97276D01*
X12863D01*
X12099Y96512D01*
Y91000D01*
X10504Y89405D01*
G01X92328Y99127D02*
X93909Y97546D01*
Y95169D01*
X93125Y94385D01*
X85245D01*
X82610Y91750D01*
X77281D01*
X73452Y95579D01*
X71841D01*
X65932Y101488D01*
Y105035D01*
X62930Y108037D01*
Y111070D01*
X55070Y118930D01*
X36570D01*
X31500Y124000D01*
X19000D01*
X17000Y122000D01*
Y120316D01*
X15224Y118540D01*
Y107498D01*
X14448Y106722D01*
X12076D01*
X10502Y105148D01*
G01X89178Y95977D02*
X84079D01*
X80911Y92809D01*
X78157D01*
X74206Y96760D01*
Y97943D01*
X69481Y102668D01*
Y105032D01*
X67902Y106611D01*
X66720D01*
X64000Y109331D01*
Y112000D01*
X55620Y120380D01*
X45235D01*
X45190Y120335D01*
X43810D01*
X43765Y120380D01*
X37120D01*
X32000Y125500D01*
X18500D01*
X15500Y122500D01*
Y120392D01*
X14436Y119328D01*
X12466D01*
X11690Y118552D01*
Y114208D01*
X13648Y112250D01*
Y108300D01*
G01X92328Y95977D02*
X90744Y97561D01*
X82905D01*
X81305Y95961D01*
X79057D01*
X77752Y97266D01*
Y98337D01*
X74993Y101096D01*
X72472D01*
X70663Y102905D01*
Y108577D01*
X52240Y127000D01*
X17501D01*
X10508Y120007D01*
Y113805D01*
X12075Y112238D01*
Y109826D01*
X10524Y108275D01*
G01X89179Y111723D02*
X84580Y107124D01*
Y103570D01*
X83275Y102265D01*
X78663D01*
X77752Y103176D01*
Y105429D01*
X53181Y130000D01*
X16000D01*
X9500Y123500D01*
X7499D01*
X5776Y121777D01*
Y110268D01*
X6170Y109874D01*
X8923D01*
X10499Y111450D01*
G01X7351Y111448D02*
X8932Y113029D01*
Y120431D01*
X17001Y128500D01*
X52712D01*
X74600Y106612D01*
Y103064D01*
X78551Y99113D01*
X84441D01*
X87605Y102277D01*
Y107009D01*
X89174Y108578D01*
G01X16799Y105150D02*
X18369Y106720D01*
X24680D01*
X26650Y108690D01*
Y111650D01*
X28000Y113000D01*
X48755D01*
X55500Y106255D01*
Y102072D01*
X57265Y100307D01*
X59233D01*
X64075Y95465D01*
X64107D01*
X64965Y94607D01*
Y94535D01*
X69084Y90416D01*
Y86329D01*
X74600Y80813D01*
Y77060D01*
X76768Y74892D01*
X83876D01*
X86029Y77045D01*
Y89679D01*
X89178Y92828D01*
G01X19949Y111449D02*
X21528Y113028D01*
Y118541D01*
X22315Y119328D01*
X30672D01*
X34000Y116000D01*
X54000D01*
X60000Y110000D01*
Y103480D01*
X73500Y89980D01*
Y88011D01*
X74600Y86911D01*
X76964D01*
X78146Y85729D01*
Y78255D01*
G01X84450D02*
Y88093D01*
X82480Y90063D01*
X76964D01*
X72629Y94398D01*
X71054D01*
X64356Y101096D01*
Y104641D01*
X61500Y107497D01*
Y110500D01*
X54500Y117500D01*
X36000D01*
X31000Y122500D01*
X19184D01*
X18376Y121692D01*
Y113026D01*
X16798Y111448D01*
G01X140000Y5000D02*
Y40000D01*
X136000Y44000D01*
Y63000D01*
X130000Y69000D01*
Y89258D01*
X128504Y90754D01*
Y93530D01*
X126995Y95039D01*
Y99119D01*
X125406Y100708D01*
X100193D01*
X95477Y105424D01*
G01X155000Y5000D02*
X144000Y16000D01*
Y41000D01*
X139000Y46000D01*
Y65000D01*
X134482Y69518D01*
Y96518D01*
X125961Y105039D01*
X110845D01*
X105720Y110164D01*
X97025D01*
X95477Y111712D01*
Y111724D01*
G01X150000Y5000D02*
X142000Y13000D01*
Y40500D01*
X137500Y45000D01*
Y64000D01*
X131500Y70000D01*
Y90046D01*
X129748Y91798D01*
Y93701D01*
X128571Y94878D01*
Y100709D01*
X125423Y103857D01*
X110450D01*
X107295Y107012D01*
X97025D01*
X95477Y108560D01*
Y108574D01*
G01X169547Y101000D02*
X167052Y98505D01*
Y90829D01*
X163244Y87021D01*
Y80191D01*
X167052Y76383D01*
Y54553D01*
X163547Y51048D01*
Y28547D01*
X157000Y22000D01*
Y19500D01*
G54D12*
X27500Y232500D03*
G54D22*
G01X132047Y176776D02*
X130147Y174876D01*
Y173756D01*
X132513Y171390D01*
Y166254D01*
X133404Y165363D01*
X136136D01*
X137973Y163526D01*
Y161018D01*
X136365Y159410D01*
X130648D01*
X129755Y158517D01*
Y157253D01*
X130648Y156360D01*
X135559D01*
X137500Y154419D01*
Y148731D01*
X135930Y147161D01*
X132108D01*
X128459Y150810D01*
X126867D01*
X125385Y149328D01*
Y148260D01*
X130016Y143629D01*
Y141331D01*
X128389Y139704D01*
X126091D01*
X121460Y144335D01*
X119998D01*
X111631Y135968D01*
Y134091D01*
X109326Y131786D01*
Y128747D01*
X109774Y128299D01*
X110398D01*
X111226Y127471D01*
G01X128897Y176775D02*
Y173238D01*
X131263Y170872D01*
Y165736D01*
X132886Y164113D01*
X135618D01*
X136723Y163008D01*
Y161536D01*
X135847Y160660D01*
X130130D01*
X128505Y159035D01*
Y156735D01*
X130130Y155110D01*
X135041D01*
X136250Y153901D01*
Y149249D01*
X135412Y148411D01*
X132626D01*
X128977Y152060D01*
X126349D01*
X124135Y149846D01*
Y147742D01*
X128766Y143111D01*
Y141849D01*
X127871Y140954D01*
X126609D01*
X121978Y145585D01*
X119480D01*
X110381Y136486D01*
Y134609D01*
X108076Y132304D01*
Y127471D01*
G54D13*
X75500Y16000D03*
X127500Y17500D03*
G54D23*
G01X92328Y118023D02*
X90754Y116449D01*
X85630D01*
X84057Y118022D01*
X80507D01*
X75965Y122564D01*
X72409D01*
X69870Y125103D01*
Y178775D01*
X84814Y193719D01*
X86758D01*
X87954Y192523D01*
G01X67083Y180500D02*
X68500D01*
X80072Y192072D01*
Y195674D01*
G01X89178Y136927D02*
X87596D01*
X86418Y135749D01*
Y134568D01*
X89176Y131810D01*
Y130628D01*
X87605Y129057D01*
Y125121D01*
X86025Y123541D01*
X85236D01*
X84448Y124329D01*
Y128269D01*
X83660Y129057D01*
X82478D01*
X81690Y128269D01*
Y123935D01*
X81059Y123304D01*
X79957D01*
X73022Y130239D01*
Y177267D01*
X83569Y187814D01*
X89544D01*
X91103Y189373D01*
G01X85972Y121228D02*
X87494Y122750D01*
X89973D01*
X90750Y123527D01*
Y125511D01*
X90757D01*
X91217Y125971D01*
Y128196D01*
X90757Y128656D01*
Y142440D01*
X89966Y143231D01*
X88394D01*
X86024Y145601D01*
Y165299D01*
X86812Y166087D01*
Y171687D01*
X91146Y176021D01*
Y180347D01*
X94298Y183499D01*
Y186573D01*
X92680Y188191D01*
Y190946D01*
X91103Y192523D01*
G01X89178Y121172D02*
X87213Y119207D01*
X85236D01*
X82875Y121568D01*
X79328D01*
X71446Y129450D01*
Y177901D01*
X82935Y189390D01*
X87937D01*
G01X79328Y141261D02*
Y138459D01*
X76903Y136034D01*
Y132662D01*
X78144Y131421D01*
X80114D01*
X81493Y132800D01*
Y137528D01*
X82872Y138907D01*
X84448D01*
X85236Y139695D01*
Y144030D01*
X83267Y145999D01*
X80508D01*
X79720Y146787D01*
Y147976D01*
X80496Y148752D01*
X83672D01*
X84448Y149528D01*
Y150626D01*
X83672Y151402D01*
X80890D01*
X80114Y152178D01*
Y153276D01*
X80890Y154052D01*
X83672D01*
X84448Y154828D01*
Y155926D01*
X83672Y156702D01*
X80890D01*
X80114Y157478D01*
Y158576D01*
X80890Y159352D01*
X83672D01*
X84448Y160128D01*
Y161226D01*
X83672Y162002D01*
X80890D01*
X80114Y162778D01*
Y164517D01*
X80902Y165305D01*
X82478D01*
X83226Y166053D01*
Y168115D01*
X82439Y168902D01*
X80850D01*
X80071Y169681D01*
Y172056D01*
X81645Y173630D01*
G01X84797Y186235D02*
X82380Y183818D01*
X81696D01*
X74600Y176722D01*
Y174610D01*
X75100Y174110D01*
X76186D01*
X76962Y173334D01*
Y172236D01*
X76186Y171460D01*
X75374D01*
X74598Y170684D01*
Y169586D01*
X75374Y168810D01*
X76186D01*
X76962Y168034D01*
Y166936D01*
X76186Y166160D01*
X75374D01*
X74598Y165384D01*
Y164286D01*
X75374Y163510D01*
X76186D01*
X76962Y162734D01*
Y161636D01*
X76186Y160860D01*
X75374D01*
X74598Y160084D01*
Y158986D01*
X76174Y157410D01*
Y155836D01*
X74598Y154260D01*
Y131803D01*
X76556Y129845D01*
X80906D01*
X84842Y133781D01*
Y136664D01*
X89178Y141000D01*
G01X83268Y141261D02*
Y143529D01*
X82768Y144029D01*
X79331D01*
X77907Y142605D01*
X76805D01*
X76174Y143236D01*
Y147558D01*
X76950Y148334D01*
X77762D01*
X78538Y149110D01*
Y150208D01*
X77762Y150984D01*
X76950D01*
X76174Y151760D01*
Y152858D01*
X76950Y153634D01*
X77762D01*
X78498Y154370D01*
Y174402D01*
X76962Y175938D01*
Y176719D01*
X77808Y177565D01*
X79161D01*
X80055Y178459D01*
Y179812D01*
X80950Y180707D01*
X82526D01*
X87971Y186152D01*
X91434D01*
X92269Y185317D01*
Y183494D01*
X91411Y182636D01*
X90358D01*
X89570Y183424D01*
X88395D01*
X87776Y182805D01*
Y181703D01*
X89572Y179907D01*
Y178691D01*
X88784Y177903D01*
X87828D01*
X85853Y179878D01*
X84849D01*
X82086Y177115D01*
Y175940D01*
X83662Y174364D01*
Y173178D01*
X84488Y172352D01*
X85196D01*
X86418Y173574D01*
Y175161D01*
X84794Y176785D01*
G01X92328Y121172D02*
X93472D01*
X93902Y121602D01*
Y125202D01*
X95300Y126600D01*
Y127800D01*
X94500Y128600D01*
X93000D01*
X92330Y129270D01*
Y144019D01*
X91542Y144807D01*
X89178D01*
X87600Y146385D01*
Y151115D01*
X88302Y151817D01*
X89978D01*
X90754Y152593D01*
Y153691D01*
X89978Y154467D01*
X88378D01*
X87602Y155243D01*
Y156341D01*
X88378Y157117D01*
X89978D01*
X90754Y157893D01*
Y158991D01*
X89978Y159767D01*
X88378D01*
X87602Y160543D01*
Y161641D01*
X88378Y162417D01*
X89978D01*
X90754Y163193D01*
Y164917D01*
X89924Y165747D01*
X89136D01*
X88390Y166493D01*
Y170811D01*
X89618Y172039D01*
X91982D01*
X92680Y172737D01*
Y179380D01*
X93400Y180100D01*
X95399D01*
X96100Y180801D01*
Y182706D01*
X96730Y183336D01*
X99670D01*
X100300Y183966D01*
Y184856D01*
X99670Y185486D01*
X96730D01*
X96100Y186116D01*
Y187266D01*
X96730Y187896D01*
X99686D01*
X100316Y188526D01*
Y189416D01*
X99686Y190046D01*
X95954D01*
X95200Y190800D01*
Y191576D01*
X94242Y192534D01*
G01X101770Y134580D02*
X103360Y132990D01*
Y119787D01*
X103940Y119207D01*
X105724D01*
X106502Y118429D01*
Y117227D01*
X105724Y116449D01*
X100996D01*
X100206Y117239D01*
Y132993D01*
X98573Y134626D01*
Y137821D01*
X100196Y139444D01*
X101010D01*
X101786Y140220D01*
Y141318D01*
X101010Y142094D01*
X100196D01*
X99420Y142870D01*
Y143968D01*
X100196Y144744D01*
X101404D01*
X102513Y145853D01*
Y146787D01*
X101679Y147621D01*
X98581D01*
X97832Y148370D01*
Y149158D01*
X98718Y150044D01*
X101666D01*
X102166Y150544D01*
Y153492D01*
X101378Y154280D01*
X100196D01*
X98265Y152349D01*
X97005D01*
X95876Y153478D01*
Y155020D01*
X96652Y155796D01*
X98252D01*
X99028Y156572D01*
Y157670D01*
X98252Y158446D01*
X96652D01*
X95862Y159236D01*
Y161766D01*
X96650Y162554D01*
X97832D01*
X99014Y161372D01*
Y161355D01*
X102968D01*
X103756Y162143D01*
Y163642D01*
X102980Y164418D01*
X99804D01*
X99028Y165194D01*
Y166292D01*
X99804Y167068D01*
X101010D01*
X101786Y167844D01*
Y170989D01*
X103747Y172950D01*
Y174573D01*
X103170Y175150D01*
X102165D01*
X100533Y176782D01*
G01X97402Y192523D02*
X99600Y194721D01*
Y202401D01*
X100376Y203177D01*
X101334D01*
X102136Y202375D01*
Y184964D01*
X102800Y184300D01*
X103800D01*
X104700Y183400D01*
Y181600D01*
X103500Y180400D01*
X97900D01*
X96700Y179200D01*
Y175466D01*
X95832Y174598D01*
Y172737D01*
X93127Y170032D01*
Y165801D01*
X92682Y165356D01*
Y150235D01*
X91830Y149383D01*
X89954D01*
X89178Y148607D01*
Y147509D01*
X89954Y146733D01*
X93130D01*
X93906Y145957D01*
Y131414D01*
X97054Y128266D01*
Y117219D01*
X96274Y116439D01*
X93894D01*
X92328Y114873D01*
G01X120669Y124319D02*
X119100Y122750D01*
X106878D01*
X106094Y123534D01*
Y136914D01*
X111632Y142452D01*
Y155944D01*
X121021Y165333D01*
Y174687D01*
X123018Y176684D01*
Y183494D01*
X125748Y186224D01*
G01X103702Y195672D02*
X103688Y195686D01*
Y200411D01*
X104820Y201543D01*
X121092D01*
X122274Y200361D01*
Y199179D01*
X121289Y198194D01*
X109075D01*
X105288Y194407D01*
Y185012D01*
X106500Y183800D01*
Y180200D01*
X105100Y178800D01*
X98899D01*
X98100Y178001D01*
Y175682D01*
X100196Y173586D01*
Y170433D01*
X98665Y168902D01*
X95543D01*
X94652Y168011D01*
Y166522D01*
X95862Y165312D01*
Y164130D01*
X94300Y162568D01*
Y149537D01*
X97846Y145991D01*
Y140502D01*
X97070Y139726D01*
X96258D01*
X95482Y138950D01*
Y133775D01*
X96266Y132991D01*
X97850D01*
X98627Y132214D01*
Y124322D01*
G01X135198Y192525D02*
X133620Y194103D01*
X109208D01*
X107635Y192530D01*
Y191214D01*
X109275Y189574D01*
Y175264D01*
X108429Y174418D01*
X106859D01*
X105724Y173283D01*
Y164518D01*
X106532Y163710D01*
X110441D01*
X111563Y162588D01*
Y161392D01*
X110388Y160217D01*
X105654D01*
X104936Y159499D01*
Y156213D01*
X106054Y155095D01*
Y142898D01*
X107529Y141423D01*
X108237D01*
X109652Y142838D01*
G01X135220Y173603D02*
X137175Y171648D01*
Y167330D01*
X138035Y166470D01*
X141573D01*
X142290Y165753D01*
Y160923D01*
X141514Y160147D01*
X139914D01*
X139138Y159371D01*
Y158273D01*
X139914Y157497D01*
X141514D01*
X142290Y156721D01*
Y155623D01*
X141514Y154847D01*
X140702D01*
X139926Y154071D01*
Y152973D01*
X141960Y150939D01*
Y149655D01*
X138507Y146202D01*
Y144706D01*
X141172Y142041D01*
Y140987D01*
X138845Y138660D01*
X137668D01*
X136774Y139554D01*
Y143130D01*
X136223Y143681D01*
X134016D01*
X133228Y142893D01*
Y140529D01*
X134821Y138936D01*
Y138062D01*
X132901Y136142D01*
X130541D01*
X129700Y136983D01*
X128123D01*
X127282Y136142D01*
X123942D01*
X123442Y136642D01*
Y139279D01*
X121460Y141261D01*
X119897D01*
X118320Y139684D01*
Y138520D01*
X117138Y137338D01*
G01X117527Y124326D02*
X119103Y125902D01*
X131226D01*
X134371Y129047D01*
X138705D01*
X149783Y140125D01*
Y177551D01*
X137959Y189375D01*
X128901D01*
G01X135198Y176777D02*
Y180614D01*
X136050Y181466D01*
X137625D01*
X139532Y179559D01*
Y178336D01*
X137444Y176248D01*
Y174526D01*
X138222Y173748D01*
X142953D01*
X143873Y172828D01*
Y171922D01*
X142985Y171034D01*
X139919D01*
X139143Y170258D01*
Y169160D01*
X139919Y168384D01*
X143197D01*
X143866Y167715D01*
Y147604D01*
X143056Y146794D01*
X141884D01*
X141108Y146018D01*
Y144920D01*
X141884Y144144D01*
X143006D01*
X143873Y143277D01*
Y141324D01*
X136380Y133831D01*
X122504D01*
X121472Y134863D01*
Y137485D01*
X120843Y138114D01*
X119901D01*
X119108Y137321D01*
Y135405D01*
X114370Y130667D01*
Y124319D01*
G01X128899Y164174D02*
X127743Y163018D01*
X127035D01*
X126535Y163518D01*
Y173236D01*
X125904Y173867D01*
X124802D01*
X124171Y173236D01*
Y158264D01*
X123383Y157476D01*
X122595D01*
X121807Y158264D01*
Y161416D01*
X121019Y162204D01*
X119865D01*
X119089Y161428D01*
Y158252D01*
X118313Y157476D01*
X116109D01*
X115186Y156553D01*
Y155641D01*
X116109Y154718D01*
X122815D01*
X123777Y153756D01*
Y152658D01*
X123001Y151882D01*
X114092D01*
X113198Y150988D01*
Y149732D01*
X114092Y148838D01*
X117450D01*
X118273Y148015D01*
Y147124D01*
X117588Y146439D01*
X116303D01*
X115515Y145651D01*
Y144366D01*
X108074Y136925D01*
Y135745D01*
G01X128899Y183069D02*
X130475Y181493D01*
Y179145D01*
X131277Y178343D01*
X132721D01*
X133658Y179280D01*
Y181935D01*
X134751Y183028D01*
X139200D01*
X142032Y180196D01*
Y178690D01*
X140337Y176995D01*
Y175989D01*
X141080Y175246D01*
X142352D01*
X143095Y175989D01*
X144671D01*
X145449Y175211D01*
Y140519D01*
X137185Y132255D01*
X119159D01*
X117527Y130623D01*
G01X128900Y186222D02*
X130518Y184604D01*
X136351D01*
X137574Y185827D01*
X138755D01*
X147429Y177153D01*
Y173939D01*
X147030Y173540D01*
Y172125D01*
X148207Y170948D01*
Y140913D01*
X137973Y130679D01*
X133331D01*
X131305Y128653D01*
X128941D01*
X128153Y129441D01*
X119497D01*
X117527Y127471D01*
G01X109652Y145596D02*
X107682Y147566D01*
Y157124D01*
X108419Y157861D01*
X110783D01*
X114727Y161805D01*
Y163380D01*
X112374Y165733D01*
X108524D01*
X107694Y166563D01*
Y170925D01*
X109161Y172392D01*
X111215D01*
X114708Y168899D01*
X117504D01*
X118292Y169687D01*
Y177570D01*
X117504Y178358D01*
X114746D01*
X110846Y182258D01*
Y190127D01*
X111670Y190951D01*
X124549D01*
X127701Y187799D01*
X133622D01*
X135193Y186228D01*
G54D14*
X140000Y5000D03*
X150000Y0D03*
X155000Y5000D03*
X150000D03*
G54D15*
X194000Y194000D03*
X235000Y2500D03*
X225000Y12500D03*
X265000Y2500D03*
X255000D03*
G54D16*
G01X-58000Y40500D02*
X-57014D01*
X-47200Y30686D01*
Y15600D01*
G01X27500Y228248D02*
Y232500D01*
G01D02*
Y236752D01*
G01X23248Y232500D02*
X27500D01*
G01D02*
X31752D01*
G01X124498Y17500D02*
X127500D01*
G01Y14498D02*
Y17500D01*
G01D02*
Y20502D01*
G01Y17500D02*
X130502D01*
G01X194000Y189248D02*
Y194000D01*
G01D02*
Y198752D01*
G01X189248Y194000D02*
X194000D01*
G01D02*
X198752D01*
G01X265000Y-2252D02*
Y2500D01*
G01D02*
Y7252D01*
G01X260248Y2500D02*
X265000D01*
G01D02*
X269752D01*
G01X265500Y135500D02*
X267500D01*
X270937Y138937D01*
Y145063D01*
X268000Y148000D01*
Y149500D01*
G01X254000Y162696D02*
Y162500D01*
X256000Y160500D01*
X261000D01*
X263500Y158000D01*
Y144500D01*
X256450Y137450D01*
Y135950D01*
G01X268000Y149500D02*
X269300D01*
X270500Y150700D01*
Y166500D01*
G54D17*
G01X-79893Y-14185D02*
G02X-109893Y-9733I184971J1349740D01*
G01Y5267D01*
G01Y234130D02*
Y220630D01*
G01X-79893Y238582D02*
G03X-109893Y234130I184971J-1349740D01*
G01X58473Y-26005D02*
G03X85938Y-26668I46608J1361558D01*
G01X58473Y250403D02*
G02X85938Y251066I46608J-1361558D01*
G01X88473Y-26668D02*
X85955D01*
G01X88473Y422D02*
Y-26668D01*
G01X108377Y422D02*
G03X88473I-9952J-1D01*
G01Y223976D02*
Y251066D01*
G01X108377Y223976D02*
G02X88473I-9952J1D01*
G01Y251066D02*
X85955D01*
G01X110882Y-26790D02*
X108377D01*
G01D02*
Y422D01*
G01Y251188D02*
Y223976D01*
G01X110882Y251188D02*
X108377D01*
G01X110888Y-26790D02*
G03X138377Y-26396I-5779J1362343D01*
G01X110888Y-26790D02*
X110882D01*
G01X110888Y251188D02*
X110882D01*
G01X110888D02*
G02X138377Y250794I-5779J-1362343D01*
G01X282000Y-15268D02*
G03X303143Y-12330I-176932J1350817D01*
G01X303144Y236729D02*
G03X282000Y239667I-198067J-1347880D01*
G01X306605Y-11770D02*
X303143Y-12330D01*
G01X306605Y-11770D02*
X303143Y-12330D01*
G01X306605Y-11770D02*
X303143Y-12330D01*
G01X303144Y236729D02*
X306606Y236168D01*
G01X303144Y236729D02*
X306606Y236168D01*
G01X303144Y236729D02*
X306606Y236168D01*
G01X324784Y9588D02*
G02X306605Y-11770I-21635J-1D01*
G01X324784Y9588D02*
G02X306605Y-11770I-21635J-1D01*
G01D02*
G03X324784Y9588I-3456J21357D01*
G01Y19588D01*
G01X306606Y236168D02*
G02X324784Y214811I-3457J-21357D01*
G01X306606Y236168D02*
G02X324784Y214811I-3457J-21357D01*
G01Y184811D01*
G54D18*
G01X182563Y220463D02*
X181500Y219400D01*
Y217000D01*
X187000Y211500D01*
X212000D01*
X228500Y195000D01*
X264000D01*
X274975Y184025D01*
X288962D01*
X289937Y185000D01*
X291500D01*
G01X179387Y220463D02*
X180450Y219400D01*
Y216565D01*
X186565Y210450D01*
X211565D01*
X228065Y193950D01*
X263565D01*
X274540Y182975D01*
X288962D01*
X289937Y182000D01*
X291500D01*
G54D19*
G01X47965Y300699D02*
X46965Y300366D01*
X46215Y299532D01*
X45715Y298532D01*
X45340Y297199D01*
X45215Y295699D01*
X45340Y294199D01*
X45715Y292866D01*
X46215Y291865D01*
X46965Y291032D01*
X47965Y290699D01*
X48965Y291032D01*
X49715Y291865D01*
X50215Y292866D01*
X50590Y294199D01*
X50715Y295699D01*
X50590Y297199D01*
X50215Y298532D01*
X49715Y299532D01*
X48965Y300366D01*
X47965Y300699D01*
G01X57965Y290699D02*
X58840Y290866D01*
X59840Y291366D01*
X60465Y292199D01*
X60715Y293366D01*
X60465Y294532D01*
X59715Y295532D01*
X58590Y296032D01*
X57340D01*
X56590Y296366D01*
X55965Y297199D01*
X55715Y298366D01*
X56090Y299532D01*
X56965Y300366D01*
X57965Y300699D01*
X58965Y300366D01*
X59840Y299532D01*
X60215Y298366D01*
X59965Y297199D01*
X59340Y296366D01*
X58590Y296032D01*
X57340D01*
X56215Y295532D01*
X55465Y294532D01*
X55215Y293366D01*
X55465Y292199D01*
X56090Y291366D01*
X57090Y290866D01*
X57965Y290699D01*
G01X66340Y294032D02*
X69590D01*
G01X136340D02*
X139590D01*
G01X147965Y290699D02*
Y300699D01*
X146465Y298699D01*
G01Y290699D02*
X149465D01*
G01X157965Y300699D02*
X156965Y300366D01*
X156215Y299532D01*
X155715Y298532D01*
X155340Y297199D01*
X155215Y295699D01*
X155340Y294199D01*
X155715Y292866D01*
X156215Y291865D01*
X156965Y291032D01*
X157965Y290699D01*
X158965Y291032D01*
X159715Y291865D01*
X160215Y292866D01*
X160590Y294199D01*
X160715Y295699D01*
X160590Y297199D01*
X160215Y298532D01*
X159715Y299532D01*
X158965Y300366D01*
X157965Y300699D01*
G01X80465Y270699D02*
Y280699D01*
X83590D01*
X84590Y280199D01*
X85215Y279532D01*
X85465Y278199D01*
X85215Y276866D01*
X84465Y276032D01*
X83590Y275532D01*
X80465D01*
G01X83590D02*
X85465Y270699D01*
G01X95465D02*
X90465D01*
Y280699D01*
X95465D01*
G01X93465Y275866D02*
X90465D01*
G01X99840Y280699D02*
X102965Y270699D01*
X106090Y280699D01*
G01X120215Y270699D02*
Y280699D01*
X122715D01*
X123715Y280199D01*
X124465Y279532D01*
X125090Y278532D01*
X125590Y277365D01*
X125715Y275699D01*
X125590Y274032D01*
X125090Y272866D01*
X124465Y271865D01*
X123715Y271199D01*
X122715Y270699D01*
X120215D01*
G01X77965Y300699D02*
X76965Y300366D01*
X76215Y299532D01*
X75715Y298532D01*
X75340Y297199D01*
X75215Y295699D01*
X75340Y294199D01*
X75715Y292866D01*
X76215Y291865D01*
X76965Y291032D01*
X77965Y290699D01*
X78965Y291032D01*
X79715Y291865D01*
X80215Y292866D01*
X80590Y294199D01*
X80715Y295699D01*
X80590Y297199D01*
X80215Y298532D01*
X79715Y299532D01*
X78965Y300366D01*
X77965Y300699D01*
G01X89465Y290699D02*
Y300699D01*
X84840Y293532D01*
X91090D01*
G01X95215Y292699D02*
X95965Y291532D01*
X96965Y290866D01*
X98090Y290699D01*
X99090Y290866D01*
X100090Y291699D01*
X100715Y292699D01*
X100840Y293699D01*
X100590Y294865D01*
X99715Y295699D01*
X98840Y296032D01*
X97715D01*
G01X98840D02*
X99590Y296532D01*
X100215Y297365D01*
X100465Y298366D01*
X100215Y299366D01*
X99590Y300199D01*
X98465Y300699D01*
X97340Y300532D01*
X96215Y299866D01*
G01X107715Y290699D02*
X107965Y292866D01*
X108340Y294699D01*
X108840Y296366D01*
X109465Y298199D01*
X110465Y300699D01*
X105465D01*
G01X115215Y292199D02*
X115965Y291366D01*
X116840Y290866D01*
X117965Y290699D01*
X119090Y291032D01*
X119965Y291699D01*
X120590Y292866D01*
X120715Y294199D01*
X120465Y295532D01*
X119840Y296366D01*
X118965Y297032D01*
X118090Y297199D01*
X117215Y297032D01*
X116090Y296366D01*
X116465Y300699D01*
X119840D01*
G01X127965Y290699D02*
X128840Y290866D01*
X129840Y291366D01*
X130465Y292199D01*
X130715Y293366D01*
X130465Y294532D01*
X129715Y295532D01*
X128590Y296032D01*
X127340D01*
X126590Y296366D01*
X125965Y297199D01*
X125715Y298366D01*
X126090Y299532D01*
X126965Y300366D01*
X127965Y300699D01*
X128965Y300366D01*
X129840Y299532D01*
X130215Y298366D01*
X129965Y297199D01*
X129340Y296366D01*
X128590Y296032D01*
X127340D01*
X126215Y295532D01*
X125465Y294532D01*
X125215Y293366D01*
X125465Y292199D01*
X126090Y291366D01*
X127090Y290866D01*
X127965Y290699D01*
G01X75465Y320699D02*
Y310699D01*
X80465D01*
G01X85215Y312199D02*
X85965Y311366D01*
X86840Y310866D01*
X87965Y310699D01*
X89090Y311032D01*
X89965Y311699D01*
X90590Y312866D01*
X90715Y314199D01*
X90465Y315532D01*
X89840Y316366D01*
X88965Y317032D01*
X88090Y317199D01*
X87215Y317032D01*
X86090Y316366D01*
X86465Y320699D01*
X89840D01*
G01X105340Y312032D02*
X106340Y311199D01*
X107465Y310699D01*
X108465D01*
X109465Y311199D01*
X110215Y312032D01*
X110590Y313199D01*
X110340Y314365D01*
X109715Y315366D01*
X108590Y316032D01*
X107090Y316366D01*
X106215Y317032D01*
X105840Y318199D01*
X106090Y319366D01*
X106715Y320199D01*
X107590Y320699D01*
X108465D01*
X109340Y320366D01*
X110090Y319532D01*
G01X116465Y320699D02*
X119465D01*
G01X117965D02*
Y310699D01*
G01X116465D02*
X119465D01*
G01X128715Y315699D02*
X131215D01*
Y312699D01*
X130465Y311699D01*
X129590Y311032D01*
X128340Y310699D01*
X127090Y311032D01*
X126215Y311699D01*
X125465Y312699D01*
X124965Y313866D01*
X124715Y315199D01*
Y316366D01*
X124965Y317365D01*
X125465Y318532D01*
X126215Y319532D01*
X126965Y320199D01*
X127965Y320699D01*
X128840D01*
X129840Y320366D01*
X130590Y319699D01*
M02*
