G04 ================== begin FILE IDENTIFICATION RECORD ==================*
G04 Layout Name:  C:/tmp/20_043758d/worklib/02_043758d_top/physical/08_043758d.brd*
G04 Film Name:    mask_sec*
G04 File Format:  Gerber RS274X*
G04 File Origin:  Cadence Allegro 17.2-060*
G04 Origin Date:  Fri Apr 03 00:38:29 2020*
G04 *
G04 Layer:  VIA CLASS/SOLDERMASK_BOTTOM*
G04 Layer:  PIN/SOLDERMASK_BOTTOM*
G04 Layer:  PACKAGE GEOMETRY/SOLDERMASK_BOTTOM*
G04 Layer:  BOARD GEOMETRY/TOOLING_CORNERS*
G04 Layer:  BOARD GEOMETRY/SOLDERMASK_BOTTOM*
G04 Layer:  BOARD GEOMETRY/ROOT_NUMBER*
G04 *
G04 Offset:    (0.00 0.00)*
G04 Mirror:    No*
G04 Mode:      Positive*
G04 Rotation:  0*
G04 FullContactRelief:  No*
G04 UndefLineWidth:     8.00*
G04 ================== end FILE IDENTIFICATION RECORD ====================*
%FSLAX25Y25*MOIN*%
%IR0*IPPOS*OFA0.00000B0.00000*MIA0B0*SFA1.00000B1.00000*%
%ADD13C,.04*%
%ADD16C,.014*%
%ADD42C,.07*%
%ADD58C,.035*%
%ADD11C,.08*%
%ADD27C,.045*%
%ADD48C,.047*%
%ADD12C,.065*%
%ADD47R,.047X.047*%
%ADD33R,.029X.029*%
%AMMACRO30*
21,1,.017,.021,0.0,0.0,179.824*%
%ADD30MACRO30*%
%AMMACRO29*
21,1,.035,.04,0.0,0.0,179.824*%
%ADD29MACRO29*%
%AMMACRO43*
21,1,.048,.052,0.0,0.0,138.841*%
%ADD43MACRO43*%
%ADD53R,.087X.087*%
%AMMACRO37*
21,1,.018,.027,0.0,0.0,179.824*
1,1,.018,.000041,.0135*
1,1,.018,-.000041,-.0135*%
%ADD37MACRO37*%
%AMMACRO41*
21,1,.029,.029,0.0,0.0,89.918*%
%ADD41MACRO41*%
%AMMACRO36*
21,1,.087,.087,0.0,0.0,89.824*%
%ADD36MACRO36*%
%ADD15R,.205X.1*%
%ADD24R,.021X.017*%
%ADD21R,.03X.026*%
%ADD14C,.11*%
%ADD56R,.033X.041*%
%ADD22R,.017X.021*%
%ADD52R,.035X.04*%
%ADD55R,.037X.04*%
%ADD26O,.037X.016*%
%ADD25R,.031X.028*%
%ADD19R,.053X.06*%
%ADD54O,.045X.018*%
%ADD40R,.062X.052*%
%ADD57O,.049X.041*%
%ADD51O,.018X.045*%
%ADD50R,.052X.062*%
%ADD49R,.018X.042*%
%ADD34R,.025X.027*%
%ADD17R,.045X.06*%
%ADD39R,.027X.025*%
%ADD32R,.042X.067*%
%ADD23R,.052X.048*%
%ADD10C,.145*%
%ADD28R,.048X.052*%
%ADD18R,.029X.027*%
%ADD20R,.027X.029*%
%ADD59O,.076X.049*%
%ADD45R,.068X.056*%
%ADD46R,.056X.068*%
%ADD44R,.068X.084*%
%AMMACRO35*
21,1,.017,.021,0.0,0.0,89.824*%
%ADD35MACRO35*%
%AMMACRO38*
21,1,.018,.027,0.0,0.0,89.824*
1,1,.018,.0135,-.000041*
1,1,.018,-.0135,.000041*%
%ADD38MACRO38*%
%AMMACRO31*
21,1,.048,.052,0.0,0.0,89.824*%
%ADD31MACRO31*%
%ADD60C,.05*%
%ADD61C,.008*%
G75*
%LPD*%
G75*
G36*
G01X316082Y100675D02*
G02Y105022I0J2173D01*
G01X322283D01*
Y100675D01*
X316082D01*
G37*
G36*
G01Y119376D02*
G02Y123723I0J2174D01*
G01X322283D01*
Y119376D01*
X316082D01*
G37*
G36*
G01Y170675D02*
G02Y175022I0J2173D01*
G01X322283D01*
Y170675D01*
X316082D01*
G37*
G36*
G01Y189376D02*
G02Y193723I0J2173D01*
G01X322283D01*
Y189376D01*
X316082D01*
G37*
G54D10*
X-129204Y-295477D03*
Y236877D03*
X0Y0D03*
Y224397D03*
X196850Y0D03*
Y224397D03*
X344094Y-295477D03*
Y236877D03*
G54D20*
X-56900Y0D03*
X-53100D03*
X126600Y230500D03*
X130400D03*
Y236500D03*
X126600D03*
X148700Y135200D03*
X144900D03*
X167100Y221000D03*
X170900D03*
X167100Y215500D03*
X170900D03*
X228152Y142649D03*
X231952D03*
X290600Y134000D03*
X294400D03*
G54D11*
X-129204Y-275792D03*
Y217192D03*
X-92500Y2500D03*
Y222500D03*
X194000Y194000D03*
X215000Y2500D03*
Y12500D03*
X235000D03*
Y2500D03*
X225000Y12500D03*
Y2500D03*
X245000Y12500D03*
Y2500D03*
X265000D03*
X255000Y12500D03*
Y2500D03*
X265000Y12500D03*
X275000Y2600D03*
Y12400D03*
X307500Y2500D03*
X344094Y217192D03*
G54D21*
X-66000Y11772D03*
Y8228D03*
G54D30*
X-26557Y192858D03*
X-24057Y192850D03*
X-26571Y187858D03*
X-24071Y187850D03*
G54D12*
X-107393Y15493D03*
Y35493D03*
Y188576D03*
Y208576D03*
X-15788Y-18919D03*
X4038Y-20543D03*
X192907Y-21464D03*
X213555Y-19970D03*
X322283Y29128D03*
Y49128D03*
Y137199D03*
Y157199D03*
G54D31*
X-17343Y213580D03*
X-17363Y206880D03*
G54D40*
X3775Y19006D03*
Y25698D03*
X156600Y143654D03*
Y150346D03*
G54D22*
X-54650Y32000D03*
X-52150D03*
X-49550Y36800D03*
X-52050D03*
X-6511Y116961D03*
X-4011D03*
X16088Y80737D03*
X13588D03*
X8606Y84677D03*
X6106D03*
X15947Y119719D03*
X2687Y116961D03*
X187D03*
X9249Y114597D03*
X11749D03*
X23421Y90972D03*
X25921D03*
X18447Y119719D03*
X78566Y176779D03*
X76066D03*
X78559Y170463D03*
X76059D03*
X78566Y165750D03*
X76066D03*
X78559Y173615D03*
X76059D03*
X78170Y188582D03*
X75670D03*
X78172Y194906D03*
X75672D03*
X78566Y179919D03*
X76066D03*
X78172Y191754D03*
X75672D03*
X85121Y198043D03*
X87621D03*
X99441Y185435D03*
X96941D03*
X99441Y179131D03*
X96941D03*
X99441Y182283D03*
X96941D03*
X99441Y188587D03*
X96941D03*
X111950Y195700D03*
X114450D03*
X122300Y198058D03*
X119800D03*
X129019Y97148D03*
X126519D03*
X133737Y115286D03*
X131237D03*
X133737Y111346D03*
X131237D03*
X125705Y198053D03*
X128205D03*
X156750Y204500D03*
X154250D03*
X146250Y231500D03*
X148750D03*
X169250Y210000D03*
X166750D03*
X265750Y157500D03*
X263250D03*
G54D13*
X-106143Y25493D03*
Y30493D03*
Y20493D03*
Y193576D03*
Y203576D03*
Y198576D03*
X-10831Y-18075D03*
X-5875Y-18481D03*
X-918Y-18887D03*
X198069Y-19841D03*
X203231Y-19467D03*
X208393Y-19094D03*
X321030Y34124D03*
X321033Y44128D03*
Y39128D03*
Y142199D03*
Y152199D03*
Y147199D03*
G54D23*
X-39600Y14950D03*
Y8250D03*
X-27400Y31750D03*
Y25050D03*
X-4300Y25650D03*
Y18950D03*
X203552Y66799D03*
Y73499D03*
G54D32*
X-15800Y21500D03*
G54D50*
X161459Y116848D03*
X168151D03*
X167912Y136500D03*
X174604D03*
G54D14*
X-86400Y-39200D03*
G54D41*
X31050Y78803D03*
X34950Y78797D03*
G54D60*
G01X-79893Y-14185D02*
G02X-109893Y-9733I184971J1349740D01*
G01Y5267D01*
G01Y234130D02*
Y220630D01*
G01X-79893Y238582D02*
G03X-109893Y234130I184971J-1349740D01*
G01X58473Y-26005D02*
G03X85938Y-26668I46608J1361558D01*
G01X58473Y250403D02*
G02X85938Y251066I46608J-1361558D01*
G01X88473Y-26668D02*
X85955D01*
G01X88473Y422D02*
Y-26668D01*
G01X108377Y422D02*
G03X88473I-9952J-1D01*
G01Y223976D02*
Y251066D01*
G01X108377Y223976D02*
G02X88473I-9952J1D01*
G01Y251066D02*
X85955D01*
G01X110882Y-26790D02*
X108377D01*
G01D02*
Y422D01*
G01Y251188D02*
Y223976D01*
G01X110882Y251188D02*
X108377D01*
G01X110888Y-26790D02*
G03X138377Y-26396I-5779J1362343D01*
G01X110888Y-26790D02*
X110882D01*
G01X110888Y251188D02*
X110882D01*
G01X110888D02*
G02X138377Y250794I-5779J-1362343D01*
G01X282000Y-15268D02*
G03X303143Y-12330I-176932J1350817D01*
G01X303144Y236729D02*
G03X282000Y239667I-198067J-1347880D01*
G01X306605Y-11770D02*
X303143Y-12330D01*
G01X306605Y-11770D02*
X303143Y-12330D01*
G01X306605Y-11770D02*
X303143Y-12330D01*
G01X303144Y236729D02*
X306606Y236168D01*
G01X303144Y236729D02*
X306606Y236168D01*
G01X303144Y236729D02*
X306606Y236168D01*
G01X324784Y9588D02*
G02X306605Y-11770I-21635J-1D01*
G01X324784Y9588D02*
G02X306605Y-11770I-21635J-1D01*
G01D02*
G03X324784Y9588I-3456J21357D01*
G01Y19588D01*
G01X306606Y236168D02*
G02X324784Y214811I-3457J-21357D01*
G01X306606Y236168D02*
G02X324784Y214811I-3457J-21357D01*
G01Y184811D01*
G54D51*
X149161Y210520D03*
X151720D03*
X154280D03*
X156839D03*
Y225480D03*
X154280D03*
X151720D03*
X149161D03*
G54D24*
X-46000Y10650D03*
Y8150D03*
X-11800Y92050D03*
Y89550D03*
X-7500Y100750D03*
Y98250D03*
X-5000Y112750D03*
Y110250D03*
X9711Y120181D03*
Y117681D03*
X34927Y85903D03*
Y83403D03*
X31381D03*
Y85903D03*
X29400Y101850D03*
Y99350D03*
X26188Y101777D03*
Y99277D03*
X22319Y112953D03*
Y115453D03*
X23000Y122250D03*
Y124750D03*
X51400Y189150D03*
Y191650D03*
X86029Y105764D03*
Y108264D03*
X79708Y115600D03*
Y118100D03*
X85189Y164227D03*
Y161727D03*
X82042Y197970D03*
Y200470D03*
X91932Y85274D03*
Y87774D03*
X100555Y164227D03*
Y161727D03*
X94251Y164227D03*
Y161727D03*
X91099Y164227D03*
Y161727D03*
X97403Y164227D03*
Y161727D03*
X99774Y169208D03*
Y171708D03*
X103315Y197975D03*
Y200475D03*
X100163Y197975D03*
Y200475D03*
X106467Y197975D03*
Y200475D03*
X90705Y197975D03*
Y200475D03*
X93857Y197975D03*
Y200475D03*
X97009Y197975D03*
Y200475D03*
X115161Y84880D03*
Y87380D03*
X115185Y73456D03*
Y75956D03*
X108470Y80157D03*
Y82657D03*
X112414Y116139D03*
Y113639D03*
X120656Y133510D03*
Y131010D03*
X113953Y173951D03*
Y176451D03*
X112382Y170152D03*
Y167652D03*
X137593Y167647D03*
Y170147D03*
X135500Y232250D03*
Y229750D03*
X177000Y104250D03*
Y101750D03*
X165000Y201750D03*
Y204250D03*
X180437Y158101D03*
Y155601D03*
X262000Y134750D03*
Y132250D03*
G54D15*
X-96394Y48803D03*
Y83303D03*
X-96393Y141095D03*
Y175595D03*
G54D33*
X-11000Y105050D03*
X-5261Y124821D03*
Y120921D03*
X-11000Y108950D03*
X18150Y77200D03*
X14250D03*
X9306Y79932D03*
X5406D03*
X14065Y123659D03*
X17965D03*
X4569D03*
X669D03*
X33339Y89416D03*
X33800Y103150D03*
Y99250D03*
X33339Y93316D03*
X26259Y111071D03*
Y114971D03*
X72237Y106224D03*
Y101496D03*
X72259Y95194D03*
X55050Y192000D03*
X58950D03*
X63550Y202500D03*
X67450D03*
X79351Y88890D03*
X83251D03*
X79351Y84162D03*
X83251D03*
X76137Y106224D03*
X86406Y95596D03*
Y99496D03*
X76137Y101496D03*
X76159Y95194D03*
X78050Y110500D03*
X81950D03*
X88341Y168119D03*
Y172019D03*
X74550Y198500D03*
X78450D03*
X103759Y72756D03*
Y76656D03*
X95478Y86150D03*
X99403Y72754D03*
Y76654D03*
X94675Y72754D03*
Y76654D03*
X100176Y101878D03*
X96276D03*
X107702Y101486D03*
X95478Y90050D03*
X104928Y92451D03*
Y96351D03*
X92316Y101898D03*
Y105798D03*
X108080Y108211D03*
Y112111D03*
X105298Y118034D03*
X101398D03*
X104136Y123962D03*
X99408Y131408D03*
Y127508D03*
X104530Y138106D03*
Y134206D03*
X104136Y127862D03*
X100555Y152359D03*
Y156259D03*
X106485Y190163D03*
X104121Y179525D03*
X108021D03*
X125407Y72754D03*
Y76654D03*
X119913Y72756D03*
Y76656D03*
X109275Y72756D03*
Y76656D03*
X111602Y101486D03*
X117910Y105039D03*
X114010D03*
X112016Y136924D03*
Y133024D03*
X110385Y190163D03*
X126981Y82984D03*
Y86884D03*
X130923Y72754D03*
Y76654D03*
X131709Y87318D03*
X140753Y95192D03*
X136853D03*
X140753Y90464D03*
X136853D03*
X130901Y101088D03*
X127001D03*
X140741Y99913D03*
X136841D03*
X131709Y91218D03*
X128584Y105818D03*
X132484D03*
X136848Y104638D03*
X140748D03*
X126606Y114129D03*
Y118029D03*
X131683Y170847D03*
Y166947D03*
X131703Y198447D03*
X135603D03*
X161708Y136500D03*
X157808D03*
X161684Y130255D03*
X156128D03*
X152228D03*
X173000Y104450D03*
Y100550D03*
X170497Y123000D03*
X166597D03*
X165584Y130255D03*
X174500Y147050D03*
Y150950D03*
X170500Y147050D03*
Y150950D03*
X163550Y165500D03*
X167450D03*
X163550Y161500D03*
X167450D03*
X174500Y203950D03*
Y200050D03*
X191000Y84550D03*
Y88450D03*
X195000Y84550D03*
Y88450D03*
Y97950D03*
Y94050D03*
X181000Y100550D03*
Y104450D03*
X182500Y172950D03*
Y169050D03*
X182550Y163000D03*
X186450D03*
X199050Y84500D03*
X202950D03*
X212050Y153000D03*
X226000Y43050D03*
Y46950D03*
Y117050D03*
Y120950D03*
X215950Y153000D03*
X239500Y67550D03*
Y71450D03*
X250500Y68450D03*
Y64550D03*
X258500Y57950D03*
Y54050D03*
X256500Y129050D03*
Y132950D03*
X262500Y138550D03*
Y142450D03*
X258500Y157550D03*
X264500Y148550D03*
Y152450D03*
X258500Y161450D03*
X274950Y140000D03*
X271050D03*
Y148000D03*
X274950D03*
Y144000D03*
X271050D03*
G54D42*
X37500Y222500D03*
Y232500D03*
X27500D03*
X47500D03*
Y222500D03*
X67500Y232500D03*
Y222500D03*
X57500D03*
Y232500D03*
G54D61*
G01X5340Y312032D02*
X6340Y311199D01*
X7465Y310699D01*
X8465D01*
X9465Y311199D01*
X10215Y312032D01*
X10590Y313199D01*
X10340Y314365D01*
X9715Y315366D01*
X8590Y316032D01*
X7090Y316366D01*
X6215Y317032D01*
X5840Y318199D01*
X6090Y319366D01*
X6715Y320199D01*
X7590Y320699D01*
X8465D01*
X9340Y320366D01*
X10090Y319532D01*
G01X17965Y310699D02*
X16965Y310866D01*
X16090Y311532D01*
X15340Y312532D01*
X14840Y313699D01*
X14590Y315032D01*
Y316366D01*
X14840Y317699D01*
X15340Y318866D01*
X16090Y319866D01*
X16965Y320532D01*
X17965Y320699D01*
X18965Y320532D01*
X19840Y319866D01*
X20590Y318866D01*
X21090Y317699D01*
X21340Y316366D01*
Y315032D01*
X21090Y313699D01*
X20590Y312532D01*
X19840Y311532D01*
X18965Y310866D01*
X17965Y310699D01*
G01X25465Y320699D02*
Y310699D01*
X30465D01*
G01X35215D02*
Y320699D01*
X37715D01*
X38715Y320199D01*
X39465Y319532D01*
X40090Y318532D01*
X40590Y317365D01*
X40715Y315699D01*
X40590Y314032D01*
X40090Y312866D01*
X39465Y311865D01*
X38715Y311199D01*
X37715Y310699D01*
X35215D01*
G01X50465D02*
X45465D01*
Y320699D01*
X50465D01*
G01X48465Y315866D02*
X45465D01*
G01X55465Y310699D02*
Y320699D01*
X58590D01*
X59590Y320199D01*
X60215Y319532D01*
X60465Y318199D01*
X60215Y316866D01*
X59465Y316032D01*
X58590Y315532D01*
X55465D01*
G01X58590D02*
X60465Y310699D01*
G01X64715D02*
Y320699D01*
X67965Y312366D01*
X71215Y320699D01*
Y310699D01*
G01X74840D02*
X77965Y320699D01*
X81090Y310699D01*
G01X79965Y314199D02*
X75965D01*
G01X85340Y312032D02*
X86340Y311199D01*
X87465Y310699D01*
X88465D01*
X89465Y311199D01*
X90215Y312032D01*
X90590Y313199D01*
X90340Y314365D01*
X89715Y315366D01*
X88590Y316032D01*
X87090Y316366D01*
X86215Y317032D01*
X85840Y318199D01*
X86090Y319366D01*
X86715Y320199D01*
X87590Y320699D01*
X88465D01*
X89340Y320366D01*
X90090Y319532D01*
G01X95215Y310699D02*
Y320699D01*
G01X99965D02*
X95215Y314532D01*
G01X100715Y310699D02*
X97340Y317365D01*
G01X115340Y312032D02*
X116340Y311199D01*
X117465Y310699D01*
X118465D01*
X119465Y311199D01*
X120215Y312032D01*
X120590Y313199D01*
X120340Y314365D01*
X119715Y315366D01*
X118590Y316032D01*
X117090Y316366D01*
X116215Y317032D01*
X115840Y318199D01*
X116090Y319366D01*
X116715Y320199D01*
X117590Y320699D01*
X118465D01*
X119340Y320366D01*
X120090Y319532D01*
G01X130465Y310699D02*
X125465D01*
Y320699D01*
X130465D01*
G01X128465Y315866D02*
X125465D01*
G01X140715Y319866D02*
X139965Y320366D01*
X139090Y320699D01*
X138090D01*
X136965Y320199D01*
X136090Y319366D01*
X135465Y318366D01*
X134965Y316699D01*
X134840Y315199D01*
X135090Y313699D01*
X135465Y312699D01*
X136215Y311699D01*
X137090Y311032D01*
X137965Y310699D01*
X138840D01*
X139715Y311032D01*
X140465Y311532D01*
X141090Y312199D01*
G01X147965Y310699D02*
X146965Y310866D01*
X146090Y311532D01*
X145340Y312532D01*
X144840Y313699D01*
X144590Y315032D01*
Y316366D01*
X144840Y317699D01*
X145340Y318866D01*
X146090Y319866D01*
X146965Y320532D01*
X147965Y320699D01*
X148965Y320532D01*
X149840Y319866D01*
X150590Y318866D01*
X151090Y317699D01*
X151340Y316366D01*
Y315032D01*
X151090Y313699D01*
X150590Y312532D01*
X149840Y311532D01*
X148965Y310866D01*
X147965Y310699D01*
G01X155090D02*
Y320699D01*
X160840Y310699D01*
Y320699D01*
G01X165215Y310699D02*
Y320699D01*
X167715D01*
X168715Y320199D01*
X169465Y319532D01*
X170090Y318532D01*
X170590Y317365D01*
X170715Y315699D01*
X170590Y314032D01*
X170090Y312866D01*
X169465Y311865D01*
X168715Y311199D01*
X167715Y310699D01*
X165215D01*
G01X174840D02*
X177965Y320699D01*
X181090Y310699D01*
G01X179965Y314199D02*
X175965D01*
G01X185465Y310699D02*
Y320699D01*
X188590D01*
X189590Y320199D01*
X190215Y319532D01*
X190465Y318199D01*
X190215Y316866D01*
X189465Y316032D01*
X188590Y315532D01*
X185465D01*
G01X188590D02*
X190465Y310699D01*
G01X197965D02*
Y315199D01*
X195465Y320699D01*
G01X200465D02*
X197965Y315199D01*
G01X47965Y300699D02*
X46965Y300366D01*
X46215Y299532D01*
X45715Y298532D01*
X45340Y297199D01*
X45215Y295699D01*
X45340Y294199D01*
X45715Y292866D01*
X46215Y291865D01*
X46965Y291032D01*
X47965Y290699D01*
X48965Y291032D01*
X49715Y291865D01*
X50215Y292866D01*
X50590Y294199D01*
X50715Y295699D01*
X50590Y297199D01*
X50215Y298532D01*
X49715Y299532D01*
X48965Y300366D01*
X47965Y300699D01*
G01X57965Y290699D02*
X58840Y290866D01*
X59840Y291366D01*
X60465Y292199D01*
X60715Y293366D01*
X60465Y294532D01*
X59715Y295532D01*
X58590Y296032D01*
X57340D01*
X56590Y296366D01*
X55965Y297199D01*
X55715Y298366D01*
X56090Y299532D01*
X56965Y300366D01*
X57965Y300699D01*
X58965Y300366D01*
X59840Y299532D01*
X60215Y298366D01*
X59965Y297199D01*
X59340Y296366D01*
X58590Y296032D01*
X57340D01*
X56215Y295532D01*
X55465Y294532D01*
X55215Y293366D01*
X55465Y292199D01*
X56090Y291366D01*
X57090Y290866D01*
X57965Y290699D01*
G01X66340Y294032D02*
X69590D01*
G01X136340D02*
X139590D01*
G01X147965Y300699D02*
X146965Y300366D01*
X146215Y299532D01*
X145715Y298532D01*
X145340Y297199D01*
X145215Y295699D01*
X145340Y294199D01*
X145715Y292866D01*
X146215Y291865D01*
X146965Y291032D01*
X147965Y290699D01*
X148965Y291032D01*
X149715Y291865D01*
X150215Y292866D01*
X150590Y294199D01*
X150715Y295699D01*
X150590Y297199D01*
X150215Y298532D01*
X149715Y299532D01*
X148965Y300366D01*
X147965Y300699D01*
G01X155590Y294865D02*
X156465Y296032D01*
X157215Y296699D01*
X158215Y297032D01*
X159090Y296699D01*
X159715Y296032D01*
X160215Y295032D01*
X160340Y293866D01*
X160215Y292866D01*
X159715Y291865D01*
X158965Y291032D01*
X158090Y290699D01*
X157090Y291032D01*
X156215Y292032D01*
X155715Y293532D01*
X155590Y295199D01*
X155840Y297365D01*
X156215Y298532D01*
X156840Y299699D01*
X157715Y300532D01*
X158590Y300699D01*
X159465Y300366D01*
X160090Y299532D01*
G01X80465Y270699D02*
Y280699D01*
X83590D01*
X84590Y280199D01*
X85215Y279532D01*
X85465Y278199D01*
X85215Y276866D01*
X84465Y276032D01*
X83590Y275532D01*
X80465D01*
G01X83590D02*
X85465Y270699D01*
G01X95465D02*
X90465D01*
Y280699D01*
X95465D01*
G01X93465Y275866D02*
X90465D01*
G01X99840Y280699D02*
X102965Y270699D01*
X106090Y280699D01*
G01X120215Y270699D02*
Y280699D01*
X122715D01*
X123715Y280199D01*
X124465Y279532D01*
X125090Y278532D01*
X125590Y277365D01*
X125715Y275699D01*
X125590Y274032D01*
X125090Y272866D01*
X124465Y271865D01*
X123715Y271199D01*
X122715Y270699D01*
X120215D01*
G01X77965Y300699D02*
X76965Y300366D01*
X76215Y299532D01*
X75715Y298532D01*
X75340Y297199D01*
X75215Y295699D01*
X75340Y294199D01*
X75715Y292866D01*
X76215Y291865D01*
X76965Y291032D01*
X77965Y290699D01*
X78965Y291032D01*
X79715Y291865D01*
X80215Y292866D01*
X80590Y294199D01*
X80715Y295699D01*
X80590Y297199D01*
X80215Y298532D01*
X79715Y299532D01*
X78965Y300366D01*
X77965Y300699D01*
G01X89465Y290699D02*
Y300699D01*
X84840Y293532D01*
X91090D01*
G01X95215Y292699D02*
X95965Y291532D01*
X96965Y290866D01*
X98090Y290699D01*
X99090Y290866D01*
X100090Y291699D01*
X100715Y292699D01*
X100840Y293699D01*
X100590Y294865D01*
X99715Y295699D01*
X98840Y296032D01*
X97715D01*
G01X98840D02*
X99590Y296532D01*
X100215Y297365D01*
X100465Y298366D01*
X100215Y299366D01*
X99590Y300199D01*
X98465Y300699D01*
X97340Y300532D01*
X96215Y299866D01*
G01X107715Y290699D02*
X107965Y292866D01*
X108340Y294699D01*
X108840Y296366D01*
X109465Y298199D01*
X110465Y300699D01*
X105465D01*
G01X115215Y292199D02*
X115965Y291366D01*
X116840Y290866D01*
X117965Y290699D01*
X119090Y291032D01*
X119965Y291699D01*
X120590Y292866D01*
X120715Y294199D01*
X120465Y295532D01*
X119840Y296366D01*
X118965Y297032D01*
X118090Y297199D01*
X117215Y297032D01*
X116090Y296366D01*
X116465Y300699D01*
X119840D01*
G01X127965Y290699D02*
X128840Y290866D01*
X129840Y291366D01*
X130465Y292199D01*
X130715Y293366D01*
X130465Y294532D01*
X129715Y295532D01*
X128590Y296032D01*
X127340D01*
X126590Y296366D01*
X125965Y297199D01*
X125715Y298366D01*
X126090Y299532D01*
X126965Y300366D01*
X127965Y300699D01*
X128965Y300366D01*
X129840Y299532D01*
X130215Y298366D01*
X129965Y297199D01*
X129340Y296366D01*
X128590Y296032D01*
X127340D01*
X126215Y295532D01*
X125465Y294532D01*
X125215Y293366D01*
X125465Y292199D01*
X126090Y291366D01*
X127090Y290866D01*
X127965Y290699D01*
G54D34*
X-16200Y93087D03*
Y89313D03*
X9711Y124136D03*
Y127910D03*
G54D25*
X-52143Y27796D03*
Y23858D03*
X175500Y211531D03*
Y221031D03*
Y224969D03*
Y215469D03*
G54D52*
X159750Y200000D03*
X154250D03*
X232250Y104000D03*
X226750D03*
X232250Y110000D03*
X226750D03*
G54D43*
X50522Y91295D03*
X45478Y95705D03*
G54D16*
X-103394Y48803D03*
Y44803D03*
Y52803D03*
X-95394D03*
X-91394D03*
X-99394D03*
X-95394Y44803D03*
X-91394D03*
X-99394D03*
Y48803D03*
X-91394D03*
X-95394D03*
X-103394Y83303D03*
Y79303D03*
Y87303D03*
X-95394D03*
X-91394D03*
X-99394D03*
X-95394Y79303D03*
X-91394D03*
X-99394D03*
Y83303D03*
X-91394D03*
X-95394D03*
X-103394Y141303D03*
Y137303D03*
X-95394D03*
X-91394D03*
X-99394D03*
Y141303D03*
X-91394D03*
X-95394D03*
X-103394Y145303D03*
X-95394D03*
X-91394D03*
X-99394D03*
X-103394Y175803D03*
Y171803D03*
X-95394D03*
X-91394D03*
X-99394D03*
Y175803D03*
X-91394D03*
X-95394D03*
X-103394Y179803D03*
X-95394D03*
X-91394D03*
X-99394D03*
X-87394Y48803D03*
Y44803D03*
Y52803D03*
Y83303D03*
Y79303D03*
Y87303D03*
Y141303D03*
Y137303D03*
Y145303D03*
Y175803D03*
Y171803D03*
Y179803D03*
X51800Y25700D03*
Y19300D03*
Y22500D03*
X55000Y25700D03*
Y22500D03*
X58200D03*
Y25700D03*
X55000Y19300D03*
X58200D03*
X189200Y81800D03*
X194000D03*
Y72200D03*
X189200Y77000D03*
X191600Y79400D03*
X196400Y74600D03*
X194000Y77000D03*
X189200Y72200D03*
X191600Y74600D03*
X196400Y79400D03*
X198800Y81800D03*
Y72200D03*
Y77000D03*
X242075Y52701D03*
X246075D03*
X250075D03*
X242075Y56701D03*
X246075D03*
X250075D03*
Y60701D03*
X242075D03*
X246075D03*
X250200Y154800D03*
Y145200D03*
Y150000D03*
X255000Y154800D03*
X259800D03*
X257400Y152400D03*
X252600D03*
X255000Y145200D03*
X259800D03*
X257400Y147600D03*
X252600D03*
X259800Y150000D03*
X255000D03*
G54D35*
X-10257Y176158D03*
X-10249Y178658D03*
X-4996Y208250D03*
X-5004Y205750D03*
G54D44*
X54897Y116468D03*
X65897D03*
X160500Y85500D03*
X149500D03*
X160500Y99000D03*
X149500D03*
G54D17*
X-79407Y938D03*
X-72007D03*
X-75707Y9738D03*
G54D26*
X-20059Y24059D03*
Y21500D03*
Y18941D03*
X-11541D03*
Y21500D03*
Y24059D03*
G54D53*
X153000Y218000D03*
G54D45*
X72000Y66250D03*
Y73750D03*
X83500Y66250D03*
Y73750D03*
X138397Y76069D03*
Y83569D03*
X151015Y117038D03*
Y124538D03*
G54D18*
X-76500Y19600D03*
Y23400D03*
X-65200Y-2900D03*
Y900D03*
X139000Y211100D03*
Y214900D03*
Y220600D03*
Y224400D03*
X169500Y200100D03*
Y203900D03*
X207052Y121049D03*
Y117249D03*
X222552Y146549D03*
Y142749D03*
X246000Y213600D03*
Y217400D03*
Y229900D03*
Y226100D03*
X262500Y229900D03*
Y226100D03*
X251500D03*
Y229900D03*
X257000D03*
Y226100D03*
G54D54*
X160480Y214161D03*
Y216720D03*
Y219280D03*
Y221839D03*
X145520D03*
Y219280D03*
Y216720D03*
Y214161D03*
G54D36*
X-9009Y192004D03*
G54D27*
X-22000Y39000D03*
X1052Y103149D03*
X70000Y40000D03*
X62500D03*
X75500Y16000D03*
X137500Y-12500D03*
X127500D03*
Y-2500D03*
Y7500D03*
Y17500D03*
X162500Y-12500D03*
X172500Y-2500D03*
Y7500D03*
X199500Y33500D03*
X213500Y104000D03*
X211000Y194000D03*
G54D46*
X56837Y99412D03*
X64337D03*
G54D28*
X-31879Y94876D03*
X-25179D03*
G54D19*
X-52260Y8076D03*
X-59740Y17524D03*
X-52260D03*
X-59740Y8076D03*
G54D55*
X230500Y52600D03*
Y58400D03*
G54D37*
X-12871Y184536D03*
X-10312Y184528D03*
X-7752Y184520D03*
X-5193Y184512D03*
X-5147Y199472D03*
X-7706Y199480D03*
X-10266Y199488D03*
X-12825Y199496D03*
G54D38*
X-16477Y195866D03*
X-16485Y193307D03*
X-16493Y190747D03*
X-16501Y188188D03*
X-1541Y188142D03*
X-1533Y190701D03*
X-1525Y193261D03*
X-1517Y195820D03*
G54D56*
X228638Y169000D03*
X233362D03*
G54D29*
X-29090Y181866D03*
X-23590Y181850D03*
G54D47*
X140000Y0D03*
G54D39*
X-87Y31600D03*
X3687D03*
G54D57*
X304763Y103439D03*
Y120959D03*
Y173439D03*
Y190959D03*
G54D48*
X140000Y5000D03*
X155000Y0D03*
X160000D03*
X150000D03*
X145000D03*
X160000Y5000D03*
X155000D03*
X150000D03*
X145000D03*
G54D49*
X133059Y224004D03*
X127941D03*
Y216996D03*
X130500D03*
X133059D03*
G54D58*
X315558Y77199D03*
X308472D03*
G54D59*
X316574Y95762D03*
Y128636D03*
Y165762D03*
Y198636D03*
M02*
